<svg width="150" height="150" viewBox="0 0 150 150" fill="none" xmlns="http://www.w3.org/2000/svg">
<g clip-path="url(#clip0_3730_12505)">
<g opacity="0.2" filter="url(#filter0_f_3730_12505)">
<path d="M75.9831 142C93.6095 142 107.899 139.744 107.899 136.961C107.899 134.178 93.6095 131.922 75.9831 131.922C58.3566 131.922 44.0675 134.178 44.0675 136.961C44.0675 139.744 58.3566 142 75.9831 142Z" fill="#E4740D"/>
</g>
<path d="M108.681 107.008C125.964 89.8353 125.964 61.9928 108.681 44.8201C91.3983 27.6474 63.3769 27.6474 46.0939 44.8201C28.8108 61.9928 28.8108 89.8353 46.0939 107.008C63.3769 124.181 91.3983 124.181 108.681 107.008Z" fill="#FD9A40"/>
<path d="M70.0295 64.4351C69.8161 66.8309 68.0237 68.6331 66.0249 68.4565C64.0262 68.2798 62.5823 66.1949 62.7957 63.799C63.0091 61.4031 64.8015 59.6009 66.8002 59.7776C68.799 59.9543 70.2429 62.0392 70.0295 64.4351Z" fill="#121212"/>
<path d="M77.1354 69.325C77.1354 70.0812 75.9191 70.689 74.4253 70.689C72.9245 70.689 71.7153 70.0741 71.7153 69.325C71.7153 68.5687 72.9316 67.9609 74.4253 67.9609C75.9191 67.9609 77.1354 68.5758 77.1354 69.325Z" fill="#121212"/>
<path d="M87.7265 80.7006C87.5558 80.7006 87.385 80.6582 87.2214 80.5734C73.6216 73.3292 65.015 80.3755 64.9296 80.4462C64.4815 80.8208 63.8058 80.7713 63.4288 80.326C63.0447 79.8808 63.1016 79.2094 63.5497 78.8348C63.9409 78.5026 73.3655 70.792 88.2315 78.7076C88.7507 78.9832 88.9428 79.6264 88.6654 80.1423C88.4733 80.4957 88.1106 80.7006 87.7265 80.7006Z" fill="#121212"/>
<path d="M88.1888 84.2505C87.7122 84.2505 87.2854 83.9395 87.1574 83.4589C86.7947 82.0666 86.8871 78.9569 89.8532 77.1476C90.3582 76.8437 91.0126 76.9992 91.3185 77.4939C91.6243 77.9957 91.4678 78.6459 90.9699 78.9498C88.6298 80.3775 89.1988 82.8228 89.2273 82.9288C89.3695 83.4942 89.021 84.0667 88.452 84.2151C88.3666 84.2363 88.2741 84.2505 88.1888 84.2505Z" fill="#121212"/>
<path d="M64.133 84.256C64.0476 84.256 63.9552 84.2419 63.8627 84.2207C63.2937 84.0723 62.9523 83.4998 63.0945 82.9344C63.123 82.8142 63.6778 80.376 61.3518 78.9625C60.8468 78.6586 60.6904 78.0013 61.0033 77.5066C61.3092 77.0048 61.9707 76.8493 62.4686 77.1602C65.4347 78.9695 65.5271 82.0792 65.1644 83.4715C65.0434 83.938 64.6096 84.256 64.133 84.256Z" fill="#121212"/>
<path d="M61.5937 114.08C61.5439 117.995 61.5653 121.918 61.6506 125.833C59.2251 125.339 56.5436 125.508 54.5093 126.915C52.475 128.321 51.3654 131.162 52.4607 133.374C53.5561 135.586 56.2875 136.42 58.7485 136.731C62.4544 137.191 66.2455 136.979 69.866 136.095C70.6413 135.904 71.4237 135.678 72.0852 135.233C74.0128 133.94 74.34 131.296 74.4396 128.992C74.6743 123.77 74.6885 118.54 74.4965 113.317C74.4609 112.37 74.3685 111.302 73.6358 110.688C73.1024 110.235 72.3555 110.143 71.6585 110.094C68.3012 109.847 64.9083 110.052 61.6079 110.695C61.5012 111.416 61.3874 112.136 61.2807 112.857L61.5937 114.08Z" fill="#FD9A40"/>
<path d="M91.4679 114.08C91.5177 117.995 91.4963 121.918 91.411 125.833C93.8365 125.339 96.518 125.508 98.5523 126.915C100.587 128.321 101.696 131.162 100.601 133.374C99.5054 135.586 96.7741 136.42 94.313 136.731C90.6072 137.191 86.816 136.979 83.1956 136.095C82.4203 135.904 81.6378 135.678 80.9763 135.233C79.0487 133.94 78.7216 131.296 78.622 128.992C78.3873 123.77 78.373 118.54 78.5651 113.317C78.6006 112.37 78.6931 111.302 79.4257 110.688C79.9592 110.235 80.7061 110.143 81.4031 110.094C84.7604 109.847 88.1533 110.052 91.4536 110.695C91.5603 111.416 91.6741 112.136 91.7808 112.857L91.4679 114.08Z" fill="#FD9A40"/>
<path d="M112.934 89.6036C110.104 91.2574 107.009 92.473 103.802 93.1939C102.564 93.4766 101.205 93.6674 100.06 93.1232C98.7443 92.4942 98.0116 90.9817 98.0045 89.5329C97.9903 88.0841 98.5807 86.6847 99.3275 85.4408C101.376 82.0131 104.57 79.4264 107.877 77.1719" fill="#FD9A40"/>
<path d="M112.401 88.6813C109.968 90.0878 107.372 91.1691 104.648 91.89C103.432 92.208 101.831 92.731 100.601 92.201C99.6547 91.791 99.1568 90.7309 99.0785 89.7556C98.8794 87.2608 100.878 84.7447 102.471 83.0132C104.228 81.1121 106.284 79.536 108.411 78.073C109.534 77.3027 108.468 75.4651 107.337 76.2426C103.417 78.9282 99.3062 82.2005 97.4995 86.7307C96.6459 88.8651 96.7099 91.4659 98.3957 93.1975C100.224 95.0703 102.955 94.5262 105.217 93.9325C108.112 93.1692 110.893 92.0031 113.475 90.5118C114.663 89.8333 113.589 87.9958 112.401 88.6813Z" fill="#FD8110"/>
<path d="M41.7061 89.6036C44.537 91.2574 47.6311 92.473 50.839 93.1939C52.0767 93.4766 53.4352 93.6674 54.5804 93.1232C55.8963 92.4942 56.6289 90.9817 56.636 89.5329C56.6502 88.0841 56.0599 86.6847 55.313 85.4408C53.2645 82.0131 50.0708 79.4264 46.7633 77.1719" fill="#FD9A40"/>
<path d="M41.1654 90.5118C43.4558 91.8334 45.9097 92.9006 48.449 93.6569C50.6611 94.3141 53.5276 95.1905 55.6046 93.7346C57.5535 92.3706 58.0372 89.8263 57.4468 87.6354C56.828 85.3243 55.2774 83.2464 53.677 81.5149C51.8063 79.4865 49.58 77.8045 47.3039 76.2426C46.1729 75.4651 45.106 77.3027 46.2298 78.073C48.3566 79.5289 50.4193 81.1121 52.1691 83.0132C53.7695 84.7447 55.7611 87.2537 55.5619 89.7556C55.4837 90.738 54.9858 91.784 54.0398 92.201C52.8163 92.7381 51.2017 92.208 49.9925 91.89C47.2683 91.1691 44.6792 90.0878 42.2395 88.6813C41.0516 87.9958 39.9776 89.8263 41.1654 90.5118Z" fill="#FD8110"/>
<path d="M88.3168 71.213C88.0608 70.7112 87.7051 70.273 87.4775 69.75C87.2641 69.2694 87.1788 68.6616 86.7804 68.287C86.5813 67.8276 85.7704 67.8912 85.7989 68.4778C85.8202 69.022 85.7419 69.538 85.5428 70.0468C85.3507 70.5486 85.0876 71.0221 84.8955 71.5239C84.547 72.4568 84.5043 73.6795 85.3365 74.3863C85.6993 74.6902 86.1687 74.8668 86.6453 74.8103C87.129 74.7538 87.5628 74.4569 87.8829 74.1036C88.6084 73.312 88.8147 72.1741 88.3168 71.213Z" fill="white"/>
<path d="M63.2509 70.0568C63.4145 69.7317 63.6421 69.4561 63.7915 69.1168C63.9266 68.8059 63.9835 68.4171 64.2396 68.1768C64.3676 67.8871 64.8869 67.9224 64.8655 68.297C64.8513 68.6504 64.9011 68.9755 65.0291 69.3076C65.15 69.6327 65.3208 69.9296 65.4417 70.2547C65.6622 70.8484 65.6906 71.6399 65.1572 72.0922C64.9224 72.2901 64.6237 72.4032 64.3178 72.3608C64.012 72.3255 63.7275 72.1346 63.5212 71.9085C63.066 71.4067 62.9379 70.6787 63.2509 70.0568Z" fill="white"/>
<path d="M88.2883 64.4351C88.0749 66.8309 86.2825 68.6331 84.2837 68.4565C82.285 68.2798 80.8411 66.1949 81.0545 63.799C81.2679 61.4031 83.0603 59.6009 85.059 59.7776C87.0578 59.9543 88.5017 62.0392 88.2883 64.4351Z" fill="#121212"/>
<path d="M44.2311 25.1975C45.0349 24.5049 45.4617 23.3741 45.3834 22.314C45.2412 20.4481 43.6905 19.1265 42.0617 18.4268C41.0872 18.0099 40.0559 17.7554 39.0031 17.6141C37.7868 17.4586 36.6488 17.6353 35.4396 17.6353C34.3869 17.6424 33.4409 16.9215 32.4948 16.5257C31.4777 16.1016 30.3894 15.7977 29.2727 15.8048C27.3309 15.8189 25.3748 16.9215 24.7631 18.8085C21.5837 18.7095 17.9276 19.1407 16.4197 22.2998C15.6515 23.9042 15.9147 25.6922 17.3444 26.823C17.9988 27.346 18.767 27.6711 19.5849 27.8619C19.9833 27.9538 20.3958 28.0174 20.8012 28.074C21.0502 28.1093 21.292 28.1376 21.541 28.1729C21.7046 28.1941 21.8682 28.2224 22.0318 28.2507C22.0673 28.2719 22.0887 28.2789 22.1171 28.2789C22.2025 28.5758 22.1171 28.9927 22.1811 29.3178C22.2594 29.7136 22.4017 30.1023 22.5937 30.4557C22.9778 31.1766 23.5966 31.7915 24.2866 32.2226C25.8158 33.1767 27.7861 33.1343 29.4434 32.5406C30.2187 32.265 31.0011 31.6219 31.812 31.5017C32.189 31.4452 32.5731 31.5724 32.9358 31.6572C33.512 31.7915 34.0952 31.8975 34.6856 31.9752C36.6061 32.2297 38.5479 32.159 40.4399 31.7773C42.1328 31.431 44.4587 30.8656 45.3336 29.2048C46.116 27.7065 45.3052 26.2859 44.2311 25.1975Z" fill="#E2E2E2"/>
<path d="M131.336 11.0819C132.282 10.2621 132.787 8.93341 132.694 7.6754C132.531 5.47034 130.695 3.90842 128.775 3.08859C127.623 2.59387 126.406 2.28997 125.162 2.13448C123.725 1.95073 122.388 2.15569 120.958 2.16275C119.713 2.16982 118.596 1.32172 117.48 0.855268C116.278 0.353477 114.99 -0.00696535 113.681 0.000102137C111.391 0.0213046 109.079 1.32172 108.361 3.54091C104.605 3.42077 100.288 3.92963 98.5096 7.66126C97.6063 9.55535 97.9192 11.6615 99.605 13.0043C100.38 13.6192 101.284 14.0079 102.251 14.234C102.728 14.3471 103.204 14.4178 103.688 14.4885C103.979 14.5309 104.271 14.5662 104.556 14.6086C104.748 14.6369 104.94 14.6651 105.132 14.7005C105.174 14.7075 105.196 14.7146 105.231 14.7217C105.338 15.0751 105.231 15.5627 105.302 15.9444C105.395 16.4108 105.566 16.8702 105.786 17.2872C106.241 18.1423 106.967 18.8632 107.785 19.3721C109.591 20.4958 111.917 20.4464 113.873 19.7467C114.784 19.4216 115.709 18.6653 116.669 18.524C117.117 18.4604 117.565 18.6088 117.992 18.7077C118.675 18.8632 119.357 18.9904 120.055 19.0823C122.316 19.3862 124.614 19.3014 126.847 18.8491C128.846 18.4463 131.592 17.7748 132.623 15.8101C133.562 14.0361 132.602 12.3611 131.336 11.0819Z" fill="#E2E2E2"/>
</g>
<defs>
<filter id="filter0_f_3730_12505" x="38.0675" y="125.922" width="75.8311" height="22.0781" filterUnits="userSpaceOnUse" color-interpolation-filters="sRGB">
<feFlood flood-opacity="0" result="BackgroundImageFix"/>
<feBlend mode="normal" in="SourceGraphic" in2="BackgroundImageFix" result="shape"/>
<feGaussianBlur stdDeviation="3" result="effect1_foregroundBlur_3730_12505"/>
</filter>
<clipPath id="clip0_3730_12505">
<rect width="117" height="150" fill="white" transform="translate(16)"/>
</clipPath>
</defs>
</svg>
