<svg width="14" height="16" viewBox="0 0 14 16" fill="none" xmlns="http://www.w3.org/2000/svg">
<path fill-rule="evenodd" clip-rule="evenodd" d="M9.85292 0.390625C9.98902 1.31505 9.61275 2.22068 9.11639 2.86142C8.58534 3.54869 7.67001 4.08026 6.78315 4.05252C6.62125 3.16747 7.03577 2.25558 7.54014 1.64258C8.09343 0.966039 9.04167 0.447003 9.85292 0.390625ZM12.5171 13.4023C12.9743 12.7016 13.1451 12.3481 13.5 11.557C10.9186 10.5753 10.5049 6.90538 13.0597 5.49682C12.2804 4.5196 11.1854 3.95313 10.1518 3.95313C9.40702 3.95313 8.89672 4.14749 8.43281 4.32418C8.04622 4.47143 7.69184 4.6064 7.26081 4.6064C6.79503 4.6064 6.38257 4.45851 5.95067 4.30366C5.47609 4.1335 4.97805 3.95492 4.36004 3.95492C3.20009 3.95492 1.96542 4.66368 1.18263 5.87536C0.0822783 7.58192 0.26997 10.7901 2.05437 13.5231C2.69217 14.5012 3.54434 15.6001 4.65893 15.61C5.12141 15.6146 5.42916 15.4765 5.7622 15.3272C6.14339 15.1562 6.5577 14.9704 7.27505 14.9666C7.99662 14.9622 8.4044 15.1503 8.78053 15.3238C9.10501 15.4735 9.40594 15.6123 9.86448 15.6073C10.98 15.5983 11.8793 14.3804 12.5171 13.4023Z" fill="white"/>
</svg>
