<svg width="16" height="16" viewBox="0 0 16 16" fill="none" xmlns="http://www.w3.org/2000/svg">
<path d="M8.00019 3.4629C9.38975 3.4629 10.3271 4.06312 10.8615 4.56467L12.95 2.52556C11.6673 1.33334 9.99819 0.601562 8.00019 0.601562C5.10597 0.601562 2.60642 2.26245 1.38953 4.67979L3.78219 6.53801C4.38242 4.75379 6.0433 3.4629 8.00019 3.4629Z" fill="#EA4335"/>
<path d="M15.1039 8.16914C15.1039 7.56069 15.0545 7.11669 14.9477 6.65625H7.99988V9.40247H12.0781C11.9959 10.0849 11.5519 11.1127 10.5652 11.8034L12.9003 13.6123C14.2981 12.3214 15.1039 10.422 15.1039 8.16914Z" fill="#4285F4"/>
<path d="M3.7902 9.46502C3.63398 9.00458 3.54353 8.51124 3.54353 8.00147C3.54353 7.49169 3.63398 6.99835 3.78198 6.53791L1.38931 4.67969C0.887753 5.6828 0.599976 6.80924 0.599976 8.00147C0.599976 9.19369 0.887753 10.3201 1.38931 11.3232L3.7902 9.46502Z" fill="#FBBC05"/>
<path d="M7.99966 15.4052C9.99766 15.4052 11.675 14.7474 12.9001 13.6128L10.565 11.8039C9.94011 12.2396 9.10144 12.5439 7.99966 12.5439C6.04277 12.5439 4.38188 11.253 3.78988 9.46875L1.39722 11.327C2.61411 13.7443 5.10544 15.4052 7.99966 15.4052Z" fill="#34A853"/>
</svg>
