<svg width="15" height="14" viewBox="0 0 15 14" fill="none" xmlns="http://www.w3.org/2000/svg">
<path d="M7.49476 0.257812C3.4621 0.257812 0.209961 2.8595 0.209961 6.01798C0.209961 8.06813 1.56285 9.8633 3.59219 10.8884L2.90534 13.4537C2.89239 13.4921 2.89039 13.5334 2.89958 13.5729C2.90877 13.6124 2.92878 13.6486 2.95737 13.6774C2.99905 13.7142 3.05269 13.7345 3.10827 13.7346C3.15435 13.7309 3.19807 13.7127 3.23315 13.6826L6.1887 11.6897C6.62497 11.7499 7.06476 11.7812 7.50516 11.7833C11.5326 11.7833 14.79 9.18166 14.79 6.01798C14.79 2.85429 11.5222 0.257812 7.49476 0.257812Z" fill="#191600"/>
</svg>
