<svg width="150" height="150" viewBox="0 0 150 150" fill="none" xmlns="http://www.w3.org/2000/svg">
<g clip-path="url(#clip0_2962_8667)">
<g opacity="0.2" filter="url(#filter0_f_2962_8667)">
<path d="M96.4041 146.003C115.937 146.003 131.772 143.489 131.772 140.388C131.772 137.287 115.937 134.773 96.4041 134.773C76.8712 134.773 61.0366 137.287 61.0366 140.388C61.0366 143.489 76.8712 146.003 96.4041 146.003Z" fill="#E4740D"/>
</g>
<path d="M97.9986 121.383C125.071 121.383 146.998 99.4364 146.973 72.3635C146.947 45.2906 124.98 23.3438 97.9072 23.3438C70.8344 23.3438 48.9079 45.2906 48.9331 72.3635C48.9583 99.4364 70.9257 121.383 97.9986 121.383Z" fill="#FD9A40"/>
<path d="M89.7989 59.5701C89.5624 62.2396 87.5761 64.2477 85.3612 64.0508C83.1463 63.854 81.5462 61.5309 81.7827 58.8613C82.0192 56.1917 84.0055 54.1836 86.2204 54.3805C88.4353 54.5774 90.0354 56.9005 89.7989 59.5701Z" fill="#121212"/>
<path d="M97.6731 65.0198C97.6731 65.8625 96.3253 66.5397 94.67 66.5397C93.0068 66.5397 91.6669 65.8546 91.6669 65.0198C91.6669 64.1772 93.0147 63.5 94.67 63.5C96.3253 63.5 97.6731 64.1851 97.6731 65.0198Z" fill="#121212"/>
<path d="M113.398 74.1365C113.059 73.5774 112.334 73.4041 111.774 73.7506C110.97 74.2467 110.356 74.8216 109.898 75.4437C95.2849 67.6555 85.4479 73.5695 83.1384 75.2311C82.697 74.6956 82.1452 74.1837 81.4279 73.7506C80.8683 73.412 80.1432 73.5853 79.8042 74.1365C79.4653 74.6956 79.6387 75.4201 80.1904 75.7587C82.7758 77.3416 82.1531 80.0505 82.1216 80.1844C81.9639 80.8144 82.3423 81.4522 82.9729 81.6176C83.0753 81.6412 83.1699 81.657 83.2724 81.657C83.8005 81.657 84.2813 81.3026 84.4153 80.775C84.6202 79.9796 84.6912 78.6803 84.2734 77.3337C85.3769 76.4832 94.6622 69.9628 108.866 77.5621H108.874C108.527 78.8299 108.606 80.0269 108.795 80.775C108.937 81.3026 109.41 81.657 109.938 81.657C110.032 81.657 110.135 81.6412 110.23 81.6176C110.86 81.4601 111.238 80.8144 111.089 80.1844C111.057 80.0663 110.427 77.3416 113.02 75.7587C113.564 75.4201 113.737 74.6956 113.398 74.1365Z" fill="#121212"/>
<path d="M80.4585 114.883C80.4033 119.246 80.4269 123.616 80.5215 127.979C77.8337 127.428 74.8621 127.617 72.6078 129.184C70.3535 130.751 69.1239 133.916 70.3377 136.381C71.5516 138.846 74.5784 139.775 77.3056 140.122C81.4122 140.634 85.6134 140.397 89.6255 139.413C90.4846 139.201 91.3517 138.949 92.0847 138.452C94.2208 137.011 94.5834 134.066 94.6937 131.499C94.9539 125.679 94.9696 119.852 94.7568 114.032C94.7174 112.977 94.6149 111.788 93.803 111.103C93.2119 110.599 92.3843 110.497 91.6118 110.441C87.8914 110.166 84.1316 110.394 80.4742 111.111C80.356 111.914 80.2299 112.717 80.1117 113.521L80.4585 114.883Z" fill="#FD9A40"/>
<path d="M113.564 114.883C113.619 119.246 113.595 123.616 113.501 127.979C116.188 127.428 119.16 127.617 121.414 129.184C123.669 130.751 124.898 133.916 123.684 136.381C122.471 138.846 119.444 139.775 116.717 140.122C112.61 140.634 108.409 140.397 104.397 139.413C103.537 139.201 102.67 138.949 101.937 138.452C99.8013 137.011 99.4387 134.066 99.3284 131.499C99.0683 125.679 99.0525 119.852 99.2653 114.032C99.3048 112.977 99.4072 111.788 100.219 111.103C100.81 110.599 101.638 110.497 102.41 110.441C106.131 110.166 109.891 110.394 113.548 111.111C113.666 111.914 113.792 112.717 113.91 113.521L113.564 114.883Z" fill="#FD9A40"/>
<path d="M137.352 78.0662C134.215 76.2234 130.786 74.869 127.231 74.0657C125.86 73.7507 124.354 73.5381 123.085 74.1445C121.627 74.8453 120.815 76.5306 120.807 78.1449C120.792 79.7593 121.446 81.3185 122.273 82.7045C124.544 86.5238 128.083 89.406 131.748 91.9181" fill="#FD9A40"/>
<path d="M137.943 77.0425C135.405 75.5699 132.686 74.3808 129.872 73.5382C127.421 72.8058 124.244 71.8293 121.942 73.4515C119.783 74.9714 119.247 77.8063 119.901 80.2476C120.587 82.8226 122.305 85.1378 124.079 87.0672C126.152 89.3273 128.619 91.2015 131.141 92.9418C132.394 93.8081 133.577 91.7606 132.331 90.9022C129.974 89.28 127.689 87.5161 125.75 85.3977C123.976 83.4684 121.769 80.6728 121.99 77.8851C122.076 76.7905 122.628 75.625 123.677 75.1604C125.032 74.5619 126.822 75.1525 128.162 75.5069C131.18 76.3101 134.05 77.515 136.753 79.0821C138.069 79.8538 139.268 77.8142 137.943 77.0425Z" fill="#FD8110"/>
<path d="M58.4119 78.0662C61.549 76.2234 64.9777 74.869 68.5326 74.0657C69.9041 73.7507 71.4096 73.5381 72.6787 74.1445C74.1369 74.8453 74.9487 76.5306 74.9566 78.1449C74.9724 79.7593 74.3182 81.3185 73.4905 82.7045C71.2204 86.5238 67.6813 89.406 64.0161 91.9181" fill="#FD9A40"/>
<path d="M59.0109 79.0909C61.7066 77.5238 64.5836 76.319 67.6025 75.5157C68.9504 75.1613 70.7239 74.5786 72.0875 75.1692C73.1358 75.626 73.6876 76.8072 73.7743 77.8939C73.995 80.6738 71.7801 83.4772 70.0145 85.4065C68.0676 87.5249 65.7896 89.281 63.4328 90.9111C62.1874 91.7694 63.3698 93.8169 64.623 92.9507C68.9661 89.9582 73.5221 86.3122 75.5241 81.2644C76.47 78.8862 76.3991 75.9882 74.531 74.0589C72.5052 71.972 69.4785 72.5784 66.9719 73.2399C63.7639 74.0904 60.6819 75.3897 57.8207 77.0513C56.4965 77.8073 57.6867 79.8548 59.0109 79.0909Z" fill="#FD8110"/>
<path d="M136.343 52.6155C136.012 51.9619 135.563 51.4028 135.263 50.7255C134.988 50.1034 134.877 49.3238 134.365 48.8277C134.113 48.2371 133.072 48.3158 133.104 49.0718C133.135 49.7805 133.025 50.442 132.773 51.1035C132.52 51.7492 132.181 52.3635 131.945 53.0171C131.504 54.222 131.448 55.8048 132.512 56.7104C132.978 57.1042 133.577 57.3325 134.191 57.2538C134.814 57.175 135.366 56.797 135.784 56.3403C136.722 55.3244 136.982 53.8597 136.343 52.6155Z" fill="white"/>
<path d="M56.2364 61.8889C56.5675 61.2353 57.0168 60.6762 57.3163 59.999C57.5922 59.3768 57.7025 58.5972 58.2149 58.1011C58.4671 57.5105 59.5075 57.5892 59.476 58.3452C59.4445 59.054 59.5548 59.7155 59.8071 60.3769C60.0593 61.0227 60.3982 61.6369 60.6347 62.2905C61.0761 63.4954 61.1313 65.0782 60.0672 65.9839C59.6021 66.3776 59.0031 66.606 58.3883 66.5272C57.7656 66.4485 57.2138 66.0705 56.7961 65.6137C55.866 64.5979 55.6059 63.1332 56.2364 61.8889Z" fill="white"/>
<path d="M129.068 48.2406C128.8 47.713 128.43 47.2484 128.193 46.7051C127.972 46.1932 127.878 45.5632 127.468 45.1616C127.263 44.6812 126.412 44.7442 126.443 45.3584C126.467 45.9333 126.38 46.4767 126.175 47.0122C125.97 47.5398 125.694 48.0359 125.497 48.5714C125.135 49.5479 125.087 50.8394 125.962 51.5796C126.341 51.9025 126.829 52.0836 127.334 52.0285C127.838 51.9655 128.296 51.6505 128.627 51.2804C129.368 50.4456 129.58 49.2486 129.068 48.2406Z" fill="white"/>
<path d="M110.032 59.5701C109.796 62.2396 107.81 64.2477 105.595 64.0508C103.38 63.854 101.78 61.5309 102.016 58.8613C102.253 56.1917 104.239 54.1836 106.454 54.3805C108.669 54.5774 110.269 56.9005 110.032 59.5701Z" fill="#121212"/>
<path d="M48.4409 37.5395C48.2439 37.3269 48.0704 37.0906 47.9207 36.8465C52.5397 32.9327 55.3851 27.5857 55.3851 21.6874C55.3851 9.70971 43.6643 0 29.1926 0C14.7208 0 3 9.70971 3 21.6874C3 33.6651 14.7287 43.3748 29.1926 43.3748C34.1032 43.3748 38.6985 42.2487 42.6317 40.3036C42.813 40.3902 42.9943 40.4689 43.1835 40.5398C44.1924 40.9414 45.2486 41.2722 46.3285 41.3667C47.4083 41.4612 48.5355 41.3194 49.4971 40.8154C49.907 40.5949 50.3326 40.2406 50.309 39.7759C50.3011 39.5239 50.1513 39.2956 50.0016 39.0908C49.5444 38.5238 48.9533 38.075 48.4409 37.5395Z" fill="#EFEFEF"/>
<path d="M28.0182 32.5859H25.1333C25.1333 34.8145 26.962 36.6415 29.1926 36.6415C31.4233 36.6415 33.252 34.8145 33.252 32.5859H30.3671H28.0182Z" fill="#FD9A40"/>
<path d="M38.2256 24.8071H38.0995C38.1074 24.6811 38.1152 24.563 38.1152 24.437V17.074C38.1152 13.2941 35.3722 10.1363 31.7779 9.46689C31.7779 9.41964 31.7858 9.38027 31.7858 9.33302C31.7858 7.90767 30.6193 6.74219 29.1926 6.74219C27.7659 6.74219 26.5993 7.90767 26.5993 9.33302C26.5993 9.38027 26.6072 9.41964 26.6072 9.46689C23.0129 10.1363 20.2699 13.2941 20.2699 17.074V24.437C20.2699 24.563 20.2857 24.689 20.2857 24.8071H20.1596C18.1338 24.8071 16.4707 26.4687 16.4707 28.4926C16.4707 30.5164 18.1338 32.178 20.1596 32.178H25.1332H28.0181H30.367H33.2519H38.2256C40.2513 32.178 41.9145 30.5164 41.9145 28.4926C41.9145 26.4608 40.2513 24.8071 38.2256 24.8071Z" fill="#FD9A40"/>
<path d="M36.4678 17.7666C39.2277 17.7666 41.4651 15.5313 41.4651 12.7739C41.4651 10.0165 39.2277 7.78125 36.4678 7.78125C33.7078 7.78125 31.4705 10.0165 31.4705 12.7739C31.4705 15.5313 33.7078 17.7666 36.4678 17.7666Z" fill="white"/>
<path d="M36.4521 15.655C36.1289 15.655 35.8373 15.6235 35.5851 15.5605C35.3328 15.4975 35.1121 15.3952 34.9387 15.2534C34.7574 15.1117 34.6234 14.9305 34.5288 14.7022C34.4343 14.4738 34.387 14.2061 34.387 13.8753V11.6703C34.387 11.3475 34.4343 11.0719 34.5288 10.8435C34.6234 10.6151 34.7574 10.434 34.9387 10.2922C35.1121 10.1505 35.3328 10.0481 35.5851 9.98512C35.8373 9.92212 36.1289 9.89062 36.4521 9.89062C36.7753 9.89062 37.059 9.92212 37.3191 9.98512C37.5793 10.0481 37.7921 10.1584 37.9812 10.3001C38.1625 10.4419 38.3044 10.6309 38.399 10.8592C38.4936 11.0876 38.5488 11.3632 38.5488 11.6861V13.8753C38.5409 14.1982 38.4857 14.4659 38.3832 14.6943C38.2808 14.9227 38.1468 15.1038 37.9655 15.2455C37.7842 15.3873 37.5714 15.4897 37.3113 15.5527C37.0511 15.6235 36.7674 15.655 36.4521 15.655ZM37.2403 11.6782C37.2324 11.5286 37.2167 11.4026 37.193 11.2924C37.1694 11.1821 37.13 11.0955 37.0669 11.0246C37.0117 10.9537 36.9329 10.9065 36.8304 10.875C36.728 10.8435 36.6019 10.8277 36.4521 10.8277C36.2945 10.8277 36.1605 10.8435 36.0659 10.875C35.9634 10.9065 35.8846 10.9616 35.8373 11.0246C35.7821 11.0955 35.7427 11.1821 35.7191 11.2924C35.6954 11.4026 35.6875 11.5286 35.6875 11.6782V13.8832C35.6875 14.0249 35.6954 14.1509 35.7191 14.2612C35.7427 14.3714 35.7821 14.458 35.8373 14.521C35.8925 14.5919 35.9713 14.6392 36.0659 14.6707C36.1683 14.7022 36.2945 14.7179 36.4521 14.7179C36.7595 14.7179 36.9723 14.647 37.0748 14.5053C37.1851 14.3635 37.2324 14.1588 37.2324 13.8753V11.6782H37.2403Z" fill="#FD9A40"/>
</g>
<defs>
<filter id="filter0_f_2962_8667" x="55.0366" y="128.773" width="82.7349" height="23.2266" filterUnits="userSpaceOnUse" color-interpolation-filters="sRGB">
<feFlood flood-opacity="0" result="BackgroundImageFix"/>
<feBlend mode="normal" in="SourceGraphic" in2="BackgroundImageFix" result="shape"/>
<feGaussianBlur stdDeviation="3" result="effect1_foregroundBlur_2962_8667"/>
</filter>
<clipPath id="clip0_2962_8667">
<rect width="144" height="150" fill="white" transform="translate(3)"/>
</clipPath>
</defs>
</svg>
