<svg width="24" height="24" viewBox="0 0 24 24" fill="none" xmlns="http://www.w3.org/2000/svg">
<path fill-rule="evenodd" clip-rule="evenodd" d="M12.0002 3C8.6441 3 5.82473 5.52345 5.45411 8.85899L5.19626 11.1793C5.08343 12.1625 4.76339 13.1106 4.25726 13.9611L3.62713 15.0114C3.38561 15.4138 3.1668 15.7785 3.02104 16.0879C2.87293 16.4024 2.71455 16.8286 2.79079 17.3117C2.86614 17.7893 3.11191 18.2233 3.48264 18.5337C3.85771 18.8476 4.30458 18.931 4.65047 18.9658C4.99084 19.0001 5.4161 19 5.88548 19H8.22787C8.47253 19.7811 8.90867 20.4865 9.50667 21.0218C10.201 21.6434 11.0766 22 12 22C12.9233 22 13.7989 21.6434 14.4932 21.0218C15.0912 20.4865 15.5274 19.7811 15.772 19H18.1148C18.5842 19 19.0095 19.0001 19.3498 18.9658C19.6957 18.931 20.1426 18.8476 20.5177 18.5337C20.8884 18.2233 21.1342 17.7893 21.2095 17.3117C21.2858 16.8286 21.1274 16.4024 20.9793 16.0879C20.8335 15.7785 20.6147 15.4138 20.3732 15.0114L19.743 13.9611C19.2369 13.1106 18.9169 12.1625 18.8041 11.1793L18.5462 8.85899C18.1756 5.52346 15.3562 3 12.0002 3ZM13.5957 19H10.4042C10.5284 19.2053 10.6762 19.3844 10.8407 19.5317C11.1942 19.8481 11.6025 20 12 20C12.3974 20 12.8057 19.8481 13.1592 19.5317C13.3237 19.3844 13.4715 19.2053 13.5957 19ZM7.44188 9.07985C7.69996 6.75718 9.6632 5 12.0002 5C14.3371 5 16.3004 6.75719 16.5584 9.07985L16.8171 11.4073C16.9622 12.6714 17.3736 13.8904 18.0244 14.9839L18.634 16.0001C18.9075 16.456 19.0724 16.733 19.1699 16.9401C19.1752 16.9514 19.1801 16.9621 19.1846 16.972C19.1737 16.9733 19.1621 16.9746 19.1496 16.9759C18.9219 16.9988 18.5995 17 18.0679 17H5.93239C5.40079 17 5.07842 16.9988 4.85068 16.9759C4.83822 16.9746 4.82657 16.9733 4.81571 16.972C4.82019 16.9621 4.82509 16.9514 4.83042 16.9401C4.92794 16.733 5.09277 16.456 5.36627 16.0001L5.97594 14.9839C6.62668 13.8904 7.03816 12.6714 7.18322 11.4073L7.44188 9.07985Z" fill="#313131"/>
<circle cx="19.5" cy="4.5" r="1.5" fill="#FD8110"/>
</svg>
