<svg width="28" height="29" viewBox="0 0 28 29" fill="none" xmlns="http://www.w3.org/2000/svg">
<circle cx="14" cy="14.0371" r="14" fill="#FD8110"/>
<path fill-rule="evenodd" clip-rule="evenodd" d="M13.3019 7.32111C13.6903 6.94244 14.3097 6.94244 14.6981 7.32111L19.6981 12.1961C20.0935 12.5817 20.1016 13.2148 19.716 13.6102C19.3305 14.0056 18.6973 14.0137 18.3019 13.6281L15 10.4088L15 21.0371C15 21.5894 14.5523 22.0371 14 22.0371C13.4477 22.0371 13 21.5894 13 21.0371L13 10.4088L9.6981 13.6281C9.30266 14.0137 8.66955 14.0056 8.284 13.6102C7.89845 13.2148 7.90646 12.5817 8.3019 12.1961L13.3019 7.32111Z" fill="white"/>
</svg>
