<svg width="24" height="24" viewBox="0 0 24 24" fill="none" xmlns="http://www.w3.org/2000/svg">
<path fill-rule="evenodd" clip-rule="evenodd" d="M2.25537 6.37186C2.25537 4.50963 3.76501 3 5.62723 3H11.7468C13.609 3 15.1186 4.50964 15.1186 6.37186V10.1016H18.5361C20.3983 10.1016 21.908 11.6112 21.908 13.4734V18.6539C21.908 20.5161 20.3983 22.0257 18.5361 22.0257H8.6868C8.63203 22.0257 8.57829 22.0213 8.52591 22.0129H5.62723C3.765 22.0129 2.25537 20.5032 2.25537 18.641V6.37186ZM14.8221 20.0257H18.5361C19.2938 20.0257 19.908 19.4115 19.908 18.6539V13.4734C19.908 12.7158 19.2938 12.1016 18.5361 12.1016H15.1186V18.641C15.1186 19.1345 15.0126 19.6033 14.8221 20.0257ZM13.1186 11.0819C13.1185 11.0884 13.1184 11.095 13.1184 11.1016C13.1184 11.1081 13.1185 11.1147 13.1186 11.1212V18.641C13.1186 19.3987 12.5044 20.0129 11.7468 20.0129H9.6861C9.68657 20.0003 9.6868 19.9876 9.6868 19.975V16.7812C9.6868 16.229 9.23909 15.7812 8.6868 15.7812C8.13452 15.7812 7.6868 16.229 7.6868 16.7812V19.975C7.6868 19.9876 7.68704 20.0003 7.68751 20.0129H5.62723C4.86957 20.0129 4.25537 19.3987 4.25537 18.641V6.37186C4.25537 5.6142 4.86958 5 5.62723 5H11.7468C12.5044 5 13.1186 5.6142 13.1186 6.37186V11.0819ZM8.00847 7.26562C7.45619 7.26562 7.00847 7.71334 7.00847 8.26562C7.00847 8.81791 7.45619 9.26562 8.00847 9.26562H9.36638C9.91866 9.26562 10.3664 8.81791 10.3664 8.26562C10.3664 7.71334 9.91866 7.26562 9.36638 7.26562H8.00847ZM7.00847 12.5078C7.00847 11.9555 7.45619 11.5078 8.00847 11.5078H9.36638C9.91866 11.5078 10.3664 11.9555 10.3664 12.5078C10.3664 13.0601 9.91866 13.5078 9.36638 13.5078H8.00847C7.45619 13.5078 7.00847 13.0601 7.00847 12.5078Z" fill="currentColor"/>
</svg>
