<svg width="28" height="28" viewBox="0 0 28 28" fill="none" xmlns="http://www.w3.org/2000/svg">
<path fill-rule="evenodd" clip-rule="evenodd" d="M2.5249 13.9999C2.5249 7.66244 7.66244 2.5249 13.9999 2.5249C20.3374 2.5249 25.4749 7.66244 25.4749 13.9999C25.4749 20.3374 20.3374 25.4749 13.9999 25.4749C12.2879 25.4749 10.6612 25.0994 9.19974 24.4255L5.18737 25.7547C4.8316 25.8726 4.43977 25.7761 4.17941 25.5065C3.91906 25.2369 3.83628 24.842 3.96647 24.4905L5.14766 21.302C3.50984 19.3184 2.5249 16.7732 2.5249 13.9999ZM13.9999 4.4749C8.73939 4.4749 4.4749 8.73939 4.4749 13.9999C4.4749 16.4833 5.42405 18.7429 6.98108 20.4391C7.22851 20.7086 7.3042 21.094 7.1771 21.4371L6.49968 23.2657L8.96135 22.4502C9.20768 22.3686 9.47639 22.3886 9.70796 22.5057C10.9966 23.1573 12.4539 23.5249 13.9999 23.5249C19.2604 23.5249 23.5249 19.2604 23.5249 13.9999C23.5249 8.73939 19.2604 4.4749 13.9999 4.4749ZM8.06657 13.9999C8.06657 13.3003 8.63367 12.7332 9.33324 12.7332C10.0328 12.7332 10.5999 13.3003 10.5999 13.9999C10.5999 14.6995 10.0328 15.2666 9.33324 15.2666C8.63367 15.2666 8.06657 14.6995 8.06657 13.9999ZM12.7332 13.9999C12.7332 13.3003 13.3003 12.7332 13.9999 12.7332C14.6995 12.7332 15.2666 13.3003 15.2666 13.9999C15.2666 14.6995 14.6995 15.2666 13.9999 15.2666C13.3003 15.2666 12.7332 14.6995 12.7332 13.9999ZM17.3999 13.9999C17.3999 13.3003 17.967 12.7332 18.6666 12.7332C19.3661 12.7332 19.9332 13.3003 19.9332 13.9999C19.9332 14.6995 19.3661 15.2666 18.6666 15.2666C17.967 15.2666 17.3999 14.6995 17.3999 13.9999Z" fill="currentColor"/>
</svg>
