<svg width="28" height="28" viewBox="0 0 28 28" fill="none" xmlns="http://www.w3.org/2000/svg">
<path fill-rule="evenodd" clip-rule="evenodd" d="M2.5249 13.9984C2.5249 7.66097 7.66244 2.52344 13.9999 2.52344C20.3374 2.52344 25.4749 7.66097 25.4749 13.9984C25.4749 20.3359 20.3374 25.4734 13.9999 25.4734C12.2879 25.4734 10.6612 25.0979 9.19974 24.424L5.18737 25.7533C4.8316 25.8711 4.43977 25.7746 4.17941 25.505C3.91906 25.2355 3.83628 24.8405 3.96647 24.489L5.14766 21.3005C3.50984 19.317 2.5249 16.7717 2.5249 13.9984ZM8.06657 13.9984C8.06657 13.2989 8.63367 12.7318 9.33324 12.7318C10.0328 12.7318 10.5999 13.2989 10.5999 13.9984C10.5999 14.698 10.0328 15.2651 9.33324 15.2651C8.63367 15.2651 8.06657 14.698 8.06657 13.9984ZM12.7332 13.9984C12.7332 13.2989 13.3003 12.7318 13.9999 12.7318C14.6995 12.7318 15.2666 13.2989 15.2666 13.9984C15.2666 14.698 14.6995 15.2651 13.9999 15.2651C13.3003 15.2651 12.7332 14.698 12.7332 13.9984ZM17.3999 13.9984C17.3999 13.2989 17.967 12.7318 18.6666 12.7318C19.3661 12.7318 19.9332 13.2989 19.9332 13.9984C19.9332 14.698 19.3661 15.2651 18.6666 15.2651C17.967 15.2651 17.3999 14.698 17.3999 13.9984Z" fill="currentColor"/>
</svg>
