<svg width="24" height="24" viewBox="0 0 24 24" fill="none" xmlns="http://www.w3.org/2000/svg">
<path fill-rule="evenodd" clip-rule="evenodd" d="M12 3.75C7.44365 3.75 3.75 7.44365 3.75 12C3.75 14.151 4.57218 16.1082 5.92073 17.5773C6.11105 17.7846 6.16928 18.081 6.07151 18.345L5.42892 20.0796L7.70819 19.3245C7.89768 19.2617 8.10438 19.2771 8.28251 19.3671C9.39878 19.9316 10.6611 20.25 12 20.25C16.5563 20.25 20.25 16.5563 20.25 12C20.25 7.44365 16.5563 3.75 12 3.75ZM2.25 12C2.25 6.61522 6.61522 2.25 12 2.25C17.3848 2.25 21.75 6.61522 21.75 12C21.75 17.3848 17.3848 21.75 12 21.75C10.5332 21.75 9.14036 21.4256 7.89082 20.8442L4.41945 21.9942C4.14578 22.0849 3.84437 22.0106 3.64409 21.8033C3.44382 21.5959 3.38014 21.2921 3.48029 21.0217L4.50994 18.2423C3.09945 16.5515 2.25 14.3742 2.25 12Z" fill="currentColor"/>
<path d="M9 12C9 12.5523 8.55228 13 8 13C7.44772 13 7 12.5523 7 12C7 11.4477 7.44772 11 8 11C8.55228 11 9 11.4477 9 12Z" fill="currentColor"/>
<path d="M13 12C13 12.5523 12.5523 13 12 13C11.4477 13 11 12.5523 11 12C11 11.4477 11.4477 11 12 11C12.5523 11 13 11.4477 13 12Z" fill="currentColor"/>
<path d="M17 12C17 12.5523 16.5523 13 16 13C15.4477 13 15 12.5523 15 12C15 11.4477 15.4477 11 16 11C16.5523 11 17 11.4477 17 12Z" fill="currentColor"/>
</svg>
