<svg width="24" height="24" viewBox="0 0 24 24" fill="none" xmlns="http://www.w3.org/2000/svg">
<path fill-rule="evenodd" clip-rule="evenodd" d="M17.4142 4.00009C16.6332 3.21904 15.3668 3.21904 14.5858 4.00009L11.3011 7.28475C11.2984 7.28745 11.2956 7.29016 11.2929 7.29289C11.2902 7.29563 11.2874 7.29837 11.2848 7.30113L3.29289 15.293C3.10536 15.4805 3 15.7349 3 16.0001V20.0001C3 20.5524 3.44772 21.0001 4 21.0001H8C8.26522 21.0001 8.51957 20.8947 8.70711 20.7072L20 9.41431C20.781 8.63326 20.781 7.36693 20 6.58588L17.4142 4.00009ZM12 9.41426L5 16.4143V19.0001H7.58579L14.5858 12L12 9.41426ZM16 10.5858L18.5858 8.00009L16 5.41431L13.4143 8.00005L16 10.5858Z" fill="currentColor"/>
</svg>
