<svg width="24" height="24" viewBox="0 0 24 24" fill="none" xmlns="http://www.w3.org/2000/svg">
<path d="M3.07726 9.99022C3 10.324 3 10.6828 3 11.4003V19.1994C3 20.1313 3 20.5972 3.15224 20.9648C3.35523 21.4548 3.74458 21.8442 4.23463 22.0472C4.60218 22.1994 5.06812 22.1994 6 22.1994H7.5C7.96594 22.1994 8.19891 22.1994 8.38268 22.1233C8.62771 22.0218 8.82239 21.8271 8.92388 21.5821C9 21.3983 9 21.1654 9 20.6994V17.1994C9 15.5426 10.3431 14.1994 12 14.1994C13.6569 14.1994 15 15.5426 15 17.1994V20.6994C15 21.1654 15 21.3983 15.0761 21.5821C15.1776 21.8271 15.3723 22.0218 15.6173 22.1233C15.8011 22.1994 16.0341 22.1994 16.5 22.1994H18C18.9319 22.1994 19.3978 22.1994 19.7654 22.0472C20.2554 21.8442 20.6448 21.4548 20.8478 20.9648C21 20.5972 21 20.1313 21 19.1994V11.4003C21 10.6828 21 10.324 20.9227 9.99022C20.8197 9.54514 20.6164 9.12946 20.3283 8.77489C20.1123 8.50897 19.8291 8.28871 19.2627 7.84821L14.7627 4.34821C13.8855 3.66591 13.4469 3.32476 12.9736 3.16238C12.3426 2.94587 11.6574 2.94587 11.0264 3.16238C10.5531 3.32476 10.1145 3.66591 9.23727 4.34821L4.73727 7.84821C4.1709 8.28871 3.88772 8.50897 3.67165 8.77489C3.38357 9.12946 3.18027 9.54514 3.07726 9.99022Z" fill="currentColor"/>
</svg>
