<svg width="24" height="24" viewBox="0 0 24 24" fill="none" xmlns="http://www.w3.org/2000/svg">
<path d="M3.07726 9.79076C3 10.1246 3 10.4833 3 11.2008V19C3 19.9318 3 20.3978 3.15224 20.7653C3.35523 21.2554 3.74458 21.6447 4.23463 21.8477C4.60218 22 5.06812 22 6 22H9V17C9 15.3431 10.3431 14 12 14C13.6569 14 15 15.3431 15 17V22H18C18.9319 22 19.3978 22 19.7654 21.8477C20.2554 21.6447 20.6448 21.2554 20.8478 20.7653C21 20.3978 21 19.9318 21 19V11.2008C21 10.4833 21 10.1246 20.9227 9.79076C20.8197 9.34567 20.6164 8.93 20.3283 8.57543C20.1123 8.3095 19.8291 8.08925 19.2627 7.64875L14.7627 4.14874C13.8855 3.46645 13.4469 3.1253 12.9736 2.96292C12.3426 2.74641 11.6574 2.74641 11.0264 2.96292C10.5531 3.1253 10.1145 3.46645 9.23727 4.14874L4.73727 7.64874C4.1709 8.08925 3.88772 8.3095 3.67165 8.57543C3.38357 8.93 3.18027 9.34567 3.07726 9.79076Z" stroke="currentColor" stroke-width="1.5" stroke-linecap="round" stroke-linejoin="round"/>
</svg>
