<svg width="28" height="28" viewBox="0 0 28 28" fill="none" xmlns="http://www.w3.org/2000/svg">
<path fill-rule="evenodd" clip-rule="evenodd" d="M15.3673 3.55169C14.4813 3.24937 13.5191 3.24937 12.6331 3.55169C11.9661 3.77926 11.3724 4.23879 10.5578 4.86942L10.422 4.97448L5.49101 8.78818C4.96133 9.19761 4.57337 9.49748 4.26887 9.87016C3.86418 10.3654 3.57853 10.9462 3.43379 11.5681C3.32487 12.036 3.32502 12.5248 3.32521 13.1919L3.32523 21.6834C3.32522 22.1549 3.32522 22.5571 3.34801 22.8893C3.37193 23.2379 3.4242 23.58 3.56412 23.916C3.88262 24.6806 4.49341 25.2878 5.26179 25.6043C5.59926 25.7433 5.94298 25.7952 6.29337 25.819C6.62737 25.8416 7.03185 25.8416 7.50604 25.8416H10.7694C11.3112 25.8416 11.7521 25.4046 11.7521 24.8635V19.509C11.7521 18.2759 12.7577 17.2745 14.0002 17.2745C15.2427 17.2745 16.2483 18.2759 16.2483 19.509V24.8635C16.2483 25.4046 16.6892 25.8416 17.231 25.8416H20.4944C20.9686 25.8416 21.373 25.8416 21.707 25.819C22.0574 25.7952 22.4011 25.7433 22.7386 25.6043C23.507 25.2878 24.1178 24.6806 24.4363 23.916C24.5762 23.58 24.6285 23.2379 24.6524 22.8893C24.6752 22.5571 24.6752 22.1548 24.6752 21.6833L24.6752 13.1919C24.6754 12.5248 24.6755 12.036 24.5666 11.5681C24.4219 10.9462 24.1362 10.3654 23.7315 9.87016C23.427 9.49747 23.039 9.19759 22.5093 8.78814L17.4426 4.86943C16.628 4.23879 16.0343 3.77926 15.3673 3.55169ZM14.7301 5.40232C14.257 5.24093 13.7434 5.24093 13.2703 5.40232C12.9537 5.51035 12.6325 5.74231 11.6279 6.51929L6.78176 10.2674C6.13483 10.7677 5.93875 10.9269 5.79362 11.1045C5.57782 11.3687 5.42559 11.6782 5.34846 12.0096C5.2966 12.2324 5.29061 12.4838 5.29061 13.2989V21.6508C5.29061 22.1632 5.29115 22.4984 5.30882 22.756C5.3259 23.005 5.35564 23.1091 5.37963 23.1667C5.49833 23.4516 5.72614 23.6783 6.01326 23.7966C6.0715 23.8206 6.17652 23.8502 6.42702 23.8672C6.68621 23.8848 7.02339 23.8853 7.53868 23.8853H9.78675V19.509C9.78675 17.1936 11.6741 15.3182 14.0002 15.3182C16.3263 15.3182 18.2136 17.1936 18.2136 19.509V23.8853H20.4617C20.977 23.8853 21.3142 23.8848 21.5734 23.8672C21.8239 23.8502 21.9289 23.8206 21.9871 23.7966C22.2743 23.6783 22.5021 23.4516 22.6208 23.1667C22.6448 23.1091 22.6745 23.005 22.6916 22.756C22.7093 22.4984 22.7098 22.1632 22.7098 21.6508V13.2989C22.7098 12.4838 22.7038 12.2324 22.6519 12.0096C22.5748 11.6782 22.4226 11.3687 22.2068 11.1045C22.0616 10.9269 21.8656 10.7677 21.2186 10.2674L16.3725 6.51929C15.3679 5.74231 15.0467 5.51035 14.7301 5.40232Z" fill="currentColor"/>
</svg>
