<svg width="28" height="28" viewBox="0 0 28 28" fill="none" xmlns="http://www.w3.org/2000/svg">
<path fill-rule="evenodd" clip-rule="evenodd" d="M15.3673 3.55486C14.4813 3.25255 13.5191 3.25255 12.6331 3.55486C11.9661 3.78243 11.3724 4.24196 10.5578 4.87259L10.422 4.97765L5.49101 8.79136C4.96133 9.20078 4.57337 9.50065 4.26887 9.87333C3.86418 10.3686 3.57853 10.9493 3.43379 11.5712C3.32487 12.0392 3.32502 12.528 3.32521 13.195L3.32523 21.6866C3.32522 22.158 3.32522 22.5603 3.34801 22.8925C3.37193 23.2411 3.4242 23.5832 3.56412 23.9191C3.88262 24.6838 4.49341 25.2909 5.26179 25.6074C5.59926 25.7464 5.94298 25.7984 6.29337 25.8221C6.62737 25.8448 7.03185 25.8448 7.50604 25.8448H10.7694C11.3112 25.8448 11.7521 25.4078 11.7521 24.8666V19.5122C11.7521 18.2791 12.7577 17.2777 14.0002 17.2777C15.2427 17.2777 16.2483 18.2791 16.2483 19.5122V24.8666C16.2483 25.4078 16.6892 25.8448 17.231 25.8448H20.4944C20.9686 25.8448 21.373 25.8448 21.707 25.8221C22.0574 25.7984 22.4011 25.7464 22.7386 25.6074C23.507 25.2909 24.1178 24.6838 24.4363 23.9191C24.5762 23.5832 24.6285 23.2411 24.6524 22.8925C24.6752 22.5603 24.6752 22.158 24.6752 21.6865L24.6752 13.1951C24.6754 12.528 24.6755 12.0392 24.5666 11.5712C24.4219 10.9493 24.1362 10.3686 23.7315 9.87333C23.427 9.50064 23.039 9.20076 22.5093 8.79131L17.4426 4.8726C16.628 4.24197 16.0343 3.78243 15.3673 3.55486Z" fill="currentColor"/>
</svg>
