<svg width="24" height="24" viewBox="0 0 24 24" fill="none" xmlns="http://www.w3.org/2000/svg">
<path d="M19.7524 18.5569L16.0479 14.8608C16.9727 13.6848 17.474 12.2314 17.4708 10.7354C17.4708 9.40326 17.0758 8.10104 16.3357 6.99341C15.5956 5.88578 14.5436 5.02249 13.3129 4.5127C12.0822 4.00292 10.7279 3.86954 9.42138 4.12942C8.11485 4.38931 6.91471 5.03079 5.97275 5.97275C5.03079 6.91471 4.38931 8.11485 4.12942 9.42138C3.86954 10.7279 4.00292 12.0822 4.5127 13.3129C5.02249 14.5436 5.88578 15.5956 6.99341 16.3357C8.10104 17.0758 9.40326 17.4708 10.7354 17.4708C12.2314 17.474 13.6848 16.9727 14.8608 16.0479L18.5569 19.7524C18.7154 19.9109 18.9304 20 19.1546 20C19.3788 20 19.5939 19.9109 19.7524 19.7524C19.9109 19.5939 20 19.3788 20 19.1546C20 18.9304 19.9109 18.7154 19.7524 18.5569ZM7.16564 14.3472C6.32948 13.5296 5.80293 12.4471 5.67582 11.2846C5.54871 10.122 5.82892 8.95134 6.46864 7.97232C7.10836 6.9933 8.06796 6.26657 9.18371 5.91613C10.2995 5.56568 11.5023 5.61322 12.5869 6.05065C13.6715 6.48808 14.5707 7.28828 15.1312 8.31474C15.6916 9.3412 15.8785 10.5303 15.6601 11.6792C15.4416 12.8281 14.8312 13.8657 13.9331 14.6148C13.035 15.3639 11.9049 15.7781 10.7354 15.7869C9.39609 15.7858 8.11208 15.2528 7.16564 14.3052V14.3472Z" fill="currentColor"/>
</svg>
