<svg width="32" height="32" viewBox="0 0 32 32" fill="none" xmlns="http://www.w3.org/2000/svg">
<path fill-rule="evenodd" clip-rule="evenodd" d="M16 11.1402C13.8912 11.1402 12.1818 12.9292 12.1818 15.136C12.1818 17.3428 13.8912 19.1317 16 19.1317C18.1087 19.1317 19.8182 17.3428 19.8182 15.136C19.8182 12.9292 18.1087 11.1402 16 11.1402ZM13.7091 15.136C13.7091 13.8119 14.7347 12.7385 16 12.7385C17.2652 12.7385 18.2909 13.8119 18.2909 15.136C18.2909 16.46 17.2652 17.5334 16 17.5334C14.7347 17.5334 13.7091 16.46 13.7091 15.136Z" fill="currentColor"/>
<path fill-rule="evenodd" clip-rule="evenodd" d="M16 5.8125C11.0796 5.8125 7.09088 9.98676 7.09088 15.136C7.09088 19.6493 8.98177 23.0325 10.9883 25.2724C11.9905 26.3911 13.0284 27.2333 13.8918 27.8002C14.3231 28.0834 14.719 28.3033 15.0528 28.4554C15.3493 28.5905 15.7001 28.7216 16 28.7216C16.2998 28.7216 16.6506 28.5905 16.9471 28.4554C17.281 28.3033 17.6768 28.0834 18.1081 27.8002C18.9715 27.2333 20.0095 26.3911 21.0116 25.2724C23.0182 23.0325 24.9091 19.6493 24.9091 15.136C24.9091 9.98676 20.9203 5.8125 16 5.8125ZM8.61815 15.136C8.61815 10.8695 11.9231 7.41081 16 7.41081C20.0768 7.41081 23.3818 10.8695 23.3818 15.136C23.3818 19.1469 21.709 22.157 19.8974 24.1792C18.9905 25.1917 18.0557 25.9478 17.2964 26.4463C16.9163 26.6959 16.5883 26.8757 16.3375 26.9899C16.1477 27.0764 16.0418 27.1068 16.0046 27.1175L16 27.1188L15.9953 27.1175C15.9581 27.1068 15.8523 27.0764 15.6625 26.9899C15.4117 26.8757 15.0836 26.6959 14.7036 26.4463C13.9442 25.9478 13.0095 25.1917 12.1025 24.1792C10.2909 22.157 8.61815 19.1469 8.61815 15.136Z" fill="currentColor"/>
<path fill-rule="evenodd" clip-rule="evenodd" d="M16 11.1402C13.8912 11.1402 12.1818 12.9292 12.1818 15.136C12.1818 17.3428 13.8912 19.1317 16 19.1317C18.1087 19.1317 19.8182 17.3428 19.8182 15.136C19.8182 12.9292 18.1087 11.1402 16 11.1402ZM13.7091 15.136C13.7091 13.8119 14.7347 12.7385 16 12.7385C17.2652 12.7385 18.2909 13.8119 18.2909 15.136C18.2909 16.46 17.2652 17.5334 16 17.5334C14.7347 17.5334 13.7091 16.46 13.7091 15.136Z" stroke="currentColor" stroke-width="0.545455" stroke-linecap="round" stroke-linejoin="round"/>
<path fill-rule="evenodd" clip-rule="evenodd" d="M16 5.8125C11.0796 5.8125 7.09088 9.98676 7.09088 15.136C7.09088 19.6493 8.98177 23.0325 10.9883 25.2724C11.9905 26.3911 13.0284 27.2333 13.8918 27.8002C14.3231 28.0834 14.719 28.3033 15.0528 28.4554C15.3493 28.5905 15.7001 28.7216 16 28.7216C16.2998 28.7216 16.6506 28.5905 16.9471 28.4554C17.281 28.3033 17.6768 28.0834 18.1081 27.8002C18.9715 27.2333 20.0095 26.3911 21.0116 25.2724C23.0182 23.0325 24.9091 19.6493 24.9091 15.136C24.9091 9.98676 20.9203 5.8125 16 5.8125ZM8.61815 15.136C8.61815 10.8695 11.9231 7.41081 16 7.41081C20.0768 7.41081 23.3818 10.8695 23.3818 15.136C23.3818 19.1469 21.709 22.157 19.8974 24.1792C18.9905 25.1917 18.0557 25.9478 17.2964 26.4463C16.9163 26.6959 16.5883 26.8757 16.3375 26.9899C16.1477 27.0764 16.0418 27.1068 16.0046 27.1175L16 27.1188L15.9953 27.1175C15.9581 27.1068 15.8523 27.0764 15.6625 26.9899C15.4117 26.8757 15.0836 26.6959 14.7036 26.4463C13.9442 25.9478 13.0095 25.1917 12.1025 24.1792C10.2909 22.157 8.61815 19.1469 8.61815 15.136Z" stroke="currentColor" stroke-width="0.545455" stroke-linecap="round" stroke-linejoin="round"/>
</svg>
