<svg width="24" height="24" viewBox="0 0 24 24" fill="none" xmlns="http://www.w3.org/2000/svg">
<path fill-rule="evenodd" clip-rule="evenodd" d="M12 8.18605C10.3431 8.18605 9 9.59166 9 11.3256C9 13.0595 10.3431 14.4651 12 14.4651C13.6569 14.4651 15 13.0595 15 11.3256C15 9.59166 13.6569 8.18605 12 8.18605ZM10.2 11.3256C10.2 10.2852 11.0059 9.44186 12 9.44186C12.9941 9.44186 13.8 10.2852 13.8 11.3256C13.8 12.3659 12.9941 13.2093 12 13.2093C11.0059 13.2093 10.2 12.3659 10.2 11.3256Z" fill="#313131"/>
<path fill-rule="evenodd" clip-rule="evenodd" d="M12 4C8.13401 4 5 7.27977 5 11.3256C5 14.8718 6.4857 17.53 8.06228 19.2899C8.84968 20.1689 9.66521 20.8306 10.3436 21.2761C10.6825 21.4986 10.9935 21.6713 11.2558 21.7908C11.4888 21.897 11.7644 22 12 22C12.2356 22 12.5112 21.897 12.7442 21.7908C13.0065 21.6713 13.3175 21.4986 13.6564 21.2761C14.3348 20.8306 15.1503 20.1689 15.9377 19.2899C17.5143 17.53 19 14.8718 19 11.3256C19 7.27977 15.866 4 12 4ZM6.2 11.3256C6.2 7.97334 8.79675 5.25581 12 5.25581C15.2033 5.25581 17.8 7.97334 17.8 11.3256C17.8 14.4771 16.4857 16.8421 15.0623 18.431C14.3497 19.2265 13.6152 19.8206 13.0186 20.2123C12.72 20.4084 12.4622 20.5496 12.2652 20.6394C12.116 20.7074 12.0329 20.7312 12.0037 20.7396L12 20.7407L11.9964 20.7396C11.9671 20.7313 11.884 20.7074 11.7348 20.6394C11.5378 20.5496 11.28 20.4084 10.9814 20.2123C10.3848 19.8206 9.65032 19.2265 8.93772 18.431C7.5143 16.8421 6.2 14.4771 6.2 11.3256Z" fill="#313131"/>
<path fill-rule="evenodd" clip-rule="evenodd" d="M12 8.18605C10.3431 8.18605 9 9.59166 9 11.3256C9 13.0595 10.3431 14.4651 12 14.4651C13.6569 14.4651 15 13.0595 15 11.3256C15 9.59166 13.6569 8.18605 12 8.18605ZM10.2 11.3256C10.2 10.2852 11.0059 9.44186 12 9.44186C12.9941 9.44186 13.8 10.2852 13.8 11.3256C13.8 12.3659 12.9941 13.2093 12 13.2093C11.0059 13.2093 10.2 12.3659 10.2 11.3256Z" stroke="#313131" stroke-width="0.5" stroke-linecap="round" stroke-linejoin="round"/>
<path fill-rule="evenodd" clip-rule="evenodd" d="M12 4C8.13401 4 5 7.27977 5 11.3256C5 14.8718 6.4857 17.53 8.06228 19.2899C8.84968 20.1689 9.66521 20.8306 10.3436 21.2761C10.6825 21.4986 10.9935 21.6713 11.2558 21.7908C11.4888 21.897 11.7644 22 12 22C12.2356 22 12.5112 21.897 12.7442 21.7908C13.0065 21.6713 13.3175 21.4986 13.6564 21.2761C14.3348 20.8306 15.1503 20.1689 15.9377 19.2899C17.5143 17.53 19 14.8718 19 11.3256C19 7.27977 15.866 4 12 4ZM6.2 11.3256C6.2 7.97334 8.79675 5.25581 12 5.25581C15.2033 5.25581 17.8 7.97334 17.8 11.3256C17.8 14.4771 16.4857 16.8421 15.0623 18.431C14.3497 19.2265 13.6152 19.8206 13.0186 20.2123C12.72 20.4084 12.4622 20.5496 12.2652 20.6394C12.116 20.7074 12.0329 20.7312 12.0037 20.7396L12 20.7407L11.9964 20.7396C11.9671 20.7313 11.884 20.7074 11.7348 20.6394C11.5378 20.5496 11.28 20.4084 10.9814 20.2123C10.3848 19.8206 9.65032 19.2265 8.93772 18.431C7.5143 16.8421 6.2 14.4771 6.2 11.3256Z" stroke="#313131" stroke-width="0.5" stroke-linecap="round" stroke-linejoin="round"/>
</svg>
