<svg width="44" height="56" viewBox="0 0 44 56" fill="none" xmlns="http://www.w3.org/2000/svg">
<g clip-path="url(#clip0_1647_5168)">
<g filter="url(#filter0_f_1647_5168)">
<ellipse cx="22" cy="51" rx="7" ry="3" fill="black" fill-opacity="0.16"/>
</g>
<g filter="url(#filter1_d_1647_5168)">
<path d="M40 22C40 31.942 22 52 22 52C22 52 4 31.942 4 22C4 12.058 12.058 4 22 4C31.942 4 40 12.058 40 22Z" fill="#FD8110"/>
<path d="M39.5 22C39.5 24.3604 38.423 27.3889 36.7429 30.653C35.0712 33.9009 32.8368 37.3179 30.5941 40.4363C28.3527 43.553 26.1102 46.3615 24.4276 48.3915C23.5864 49.4062 22.8857 50.2258 22.3956 50.7912C22.2424 50.968 22.1099 51.1199 22 51.2451C21.8901 51.1199 21.7576 50.968 21.6044 50.7912C21.1143 50.2258 20.4136 49.4062 19.5724 48.3915C17.8898 46.3615 15.6473 43.553 13.4059 40.4363C11.1632 37.3179 8.9288 33.9009 7.25707 30.653C5.57702 27.3889 4.5 24.3604 4.5 22C4.5 12.3341 12.3341 4.5 22 4.5C31.6659 4.5 39.5 12.3341 39.5 22Z" stroke="white"/>
</g>
<path d="M22 29C25.866 29 29 25.866 29 22C29 18.134 25.866 15 22 15C18.134 15 15 18.134 15 22C15 25.866 18.134 29 22 29Z" fill="white"/>
</g>
<defs>
<filter id="filter0_f_1647_5168" x="13" y="46" width="18" height="10" filterUnits="userSpaceOnUse" color-interpolation-filters="sRGB">
<feFlood flood-opacity="0" result="BackgroundImageFix"/>
<feBlend mode="normal" in="SourceGraphic" in2="BackgroundImageFix" result="shape"/>
<feGaussianBlur stdDeviation="1" result="effect1_foregroundBlur_1647_5168"/>
</filter>
<filter id="filter1_d_1647_5168" x="-2" y="-2" width="48" height="60" filterUnits="userSpaceOnUse" color-interpolation-filters="sRGB">
<feFlood flood-opacity="0" result="BackgroundImageFix"/>
<feColorMatrix in="SourceAlpha" type="matrix" values="0 0 0 0 0 0 0 0 0 0 0 0 0 0 0 0 0 0 127 0" result="hardAlpha"/>
<feOffset/>
<feGaussianBlur stdDeviation="3"/>
<feComposite in2="hardAlpha" operator="out"/>
<feColorMatrix type="matrix" values="0 0 0 0 0 0 0 0 0 0 0 0 0 0 0 0 0 0 0.1 0"/>
<feBlend mode="normal" in2="BackgroundImageFix" result="effect1_dropShadow_1647_5168"/>
<feBlend mode="normal" in="SourceGraphic" in2="effect1_dropShadow_1647_5168" result="shape"/>
</filter>
<clipPath id="clip0_1647_5168">
<rect width="44" height="56" fill="white"/>
</clipPath>
</defs>
</svg>
