<svg width="24" height="24" viewBox="0 0 24 24" fill="none" xmlns="http://www.w3.org/2000/svg">
<path d="M14 3V3.14286C14 3.54692 14 3.74895 13.8745 3.87447C13.7489 4 13.5469 4 13.1429 4H10.8571C10.4531 4 10.2511 4 10.1255 3.87447C10 3.74895 10 3.54692 10 3.14286V3H14Z" fill="#313131"/>
<path fill-rule="evenodd" clip-rule="evenodd" d="M14.8574 2.14282V3.14282C14.8574 3.15392 14.8574 3.16518 14.8574 3.17658C14.8575 3.3479 14.8576 3.55187 14.834 3.72729C14.8056 3.93905 14.7294 4.23197 14.4808 4.48053C14.2322 4.7291 13.9393 4.8053 13.7276 4.83377C13.5521 4.85736 13.3482 4.85723 13.1769 4.85712C13.1655 4.85711 13.1542 4.85711 13.1431 4.85711H10.8574C10.8463 4.85711 10.835 4.85711 10.8236 4.85712C10.6523 4.85723 10.4483 4.85736 10.2729 4.83377C10.0612 4.8053 9.76824 4.7291 9.51967 4.48053C9.27111 4.23197 9.1949 3.93905 9.16643 3.72729C9.14284 3.55187 9.14297 3.3479 9.14308 3.17658C9.14309 3.16518 9.1431 3.15392 9.1431 3.14282V2.14282H14.8574ZM14.0002 2.99997V3.14282C14.0002 3.52879 14.0002 3.73042 13.8908 3.85711C13.8857 3.86305 13.8803 3.86882 13.8747 3.87444C13.7492 3.99996 13.5472 3.99996 13.1431 3.99996H10.8574C10.4533 3.99996 10.2513 3.99996 10.1258 3.87444C10.1201 3.86882 10.1148 3.86305 10.1096 3.85711C10.0002 3.73042 10.0002 3.52879 10.0002 3.14282V2.99997H14.0002Z" fill="#313131"/>
<path fill-rule="evenodd" clip-rule="evenodd" d="M14.5714 3.71429H9.42857C8.57199 3.71429 8.102 3.71793 7.77596 3.76176C7.77171 3.76233 7.76755 3.7629 7.76347 3.76347C7.7629 3.76755 7.76233 3.77171 7.76176 3.77596C7.71793 4.102 7.71429 4.57199 7.71429 5.42857V18.5714C7.71429 19.428 7.71793 19.898 7.76176 20.224C7.76233 20.2283 7.7629 20.2325 7.76347 20.2365C7.76755 20.2371 7.77171 20.2377 7.77596 20.2382C8.102 20.2821 8.57199 20.2857 9.42857 20.2857H14.5714C15.428 20.2857 15.898 20.2821 16.224 20.2382C16.2283 20.2377 16.2325 20.2371 16.2365 20.2365C16.2371 20.2325 16.2377 20.2283 16.2382 20.224C16.2821 19.898 16.2857 19.428 16.2857 18.5714V5.42857C16.2857 4.57199 16.2821 4.102 16.2382 3.77596C16.2377 3.77171 16.2371 3.76755 16.2365 3.76347C16.2325 3.7629 16.2283 3.76233 16.224 3.76176C15.898 3.71793 15.428 3.71429 14.5714 3.71429ZM16.4041 3.79726C16.4041 3.79727 16.4036 3.79709 16.4026 3.79669L16.4041 3.79726ZM16.2033 3.59745C16.2029 3.59644 16.2027 3.5959 16.2027 3.59589L16.2033 3.59745ZM16.2027 20.4041C16.2027 20.4041 16.2029 20.4036 16.2033 20.4026L16.2027 20.4041ZM7.79726 20.4041C7.79726 20.4041 7.79706 20.4036 7.79669 20.4025L7.79726 20.4041ZM7.59589 3.79726C7.59588 3.79726 7.59638 3.79706 7.59744 3.79669L7.59589 3.79726ZM6.5021 2.5021C6 3.00421 6 3.81233 6 5.42857V18.5714C6 20.1877 6 20.9958 6.5021 21.4979C7.00421 22 7.81233 22 9.42857 22H14.5714C16.1877 22 16.9958 22 17.4979 21.4979C18 20.9958 18 20.1877 18 18.5714V5.42857C18 3.81233 18 3.00421 17.4979 2.5021C16.9958 2 16.1877 2 14.5714 2H9.42857C7.81233 2 7.00421 2 6.5021 2.5021Z" fill="#313131"/>
<circle cx="12" cy="18" r="1" fill="#313131"/>
</svg>
