<svg width="24" height="24" viewBox="0 0 24 24" fill="none" xmlns="http://www.w3.org/2000/svg">
<path fill-rule="evenodd" clip-rule="evenodd" d="M11 4.75C7.54822 4.75 4.75 7.54822 4.75 11C4.75 14.4518 7.54822 17.25 11 17.25C14.4518 17.25 17.25 14.4518 17.25 11C17.25 7.54822 14.4518 4.75 11 4.75ZM3.25 11C3.25 6.71979 6.71979 3.25 11 3.25C15.2802 3.25 18.75 6.71979 18.75 11C18.75 12.87 18.0877 14.5853 16.9848 15.9242L20.5303 19.4697C20.8232 19.7626 20.8232 20.2374 20.5303 20.5303C20.2374 20.8232 19.7626 20.8232 19.4697 20.5303L15.9242 16.9848C14.5853 18.0877 12.87 18.75 11 18.75C6.71979 18.75 3.25 15.2802 3.25 11Z" fill="currentColor"/>
</svg>
