<svg width="28" height="28" viewBox="0 0 28 28" fill="none" xmlns="http://www.w3.org/2000/svg">
<path fill-rule="evenodd" clip-rule="evenodd" d="M3.6665 12.8334C3.6665 7.7708 7.77056 3.66675 12.8332 3.66675C17.8958 3.66675 21.9998 7.7708 21.9998 12.8334C21.9998 15.0043 21.245 16.9993 19.9836 18.5697L24.0403 22.6263C24.4308 23.0168 24.4308 23.65 24.0403 24.0405C23.6498 24.431 23.0166 24.431 22.6261 24.0405L18.5694 19.9839C16.999 21.2453 15.0041 22.0001 12.8332 22.0001C7.77056 22.0001 3.6665 17.896 3.6665 12.8334ZM12.8332 5.66675C8.87513 5.66675 5.6665 8.87537 5.6665 12.8334C5.6665 16.7915 8.87513 20.0001 12.8332 20.0001C16.7912 20.0001 19.9998 16.7915 19.9998 12.8334C19.9998 8.87537 16.7912 5.66675 12.8332 5.66675Z" fill="currentColor"/>
</svg>
