<svg width="24" height="24" viewBox="0 0 24 24" fill="none" xmlns="http://www.w3.org/2000/svg">
<path fill-rule="evenodd" clip-rule="evenodd" d="M18.8734 16.752C20.0534 15.1396 20.75 13.1512 20.75 11C20.75 5.61522 16.3848 1.25 11 1.25C5.61522 1.25 1.25 5.61522 1.25 11C1.25 16.3848 5.61522 20.75 11 20.75C13.1512 20.75 15.1396 20.0533 16.752 18.8734L19.9393 22.0607C20.5251 22.6464 21.4749 22.6464 22.0607 22.0607C22.6464 21.4749 22.6464 20.5251 22.0607 19.9393L18.8734 16.752ZM11 4.20946C7.24969 4.20946 4.20946 7.24969 4.20946 11C4.20946 14.7503 7.24969 17.7905 11 17.7905C14.7503 17.7905 17.7905 14.7503 17.7905 11C17.7905 7.24969 14.7503 4.20946 11 4.20946Z" fill="currentColor"/>
</svg>
