<svg width="28" height="28" viewBox="0 0 28 28" fill="none" xmlns="http://www.w3.org/2000/svg">
<path fill-rule="evenodd" clip-rule="evenodd" d="M3.1665 12.8334C3.1665 7.49466 7.49442 3.16675 12.8332 3.16675C18.1719 3.16675 22.4998 7.49466 22.4998 12.8334C22.4998 14.9608 21.8119 16.929 20.6469 18.5258L24.3938 22.2728C24.9796 22.8585 24.9796 23.8083 24.3938 24.3941C23.808 24.9799 22.8583 24.9799 22.2725 24.3941L18.5255 20.6471C16.9288 21.8122 14.9606 22.5001 12.8332 22.5001C7.49442 22.5001 3.1665 18.1722 3.1665 12.8334ZM12.8332 6.16675C9.15127 6.16675 6.1665 9.15152 6.1665 12.8334C6.1665 16.5153 9.15127 19.5001 12.8332 19.5001C16.5151 19.5001 19.4998 16.5153 19.4998 12.8334C19.4998 9.15152 16.5151 6.16675 12.8332 6.16675Z" fill="currentColor"/>
</svg>
