<svg width="24" height="24" viewBox="0 0 24 24" fill="none" xmlns="http://www.w3.org/2000/svg">
<path fill-rule="evenodd" clip-rule="evenodd" d="M12.0409 8C9.83175 8 8.04089 9.79086 8.04089 12C8.04089 14.2091 9.83175 16 12.0409 16C14.25 16 16.0409 14.2091 16.0409 12C16.0409 9.79086 14.25 8 12.0409 8ZM10.0409 12C10.0409 10.8954 10.9363 10 12.0409 10C13.1455 10 14.0409 10.8954 14.0409 12C14.0409 13.1046 13.1455 14 12.0409 14C10.9363 14 10.0409 13.1046 10.0409 12Z" fill="currentColor"/>
<path fill-rule="evenodd" clip-rule="evenodd" d="M11.1301 2C9.82991 2 8.74675 2.99666 8.63877 4.29239L8.57423 5.06688C8.27595 5.21628 7.98875 5.38429 7.71415 5.56936L7.00552 5.23535C5.82939 4.681 4.42468 5.12072 3.77457 6.24675L2.90477 7.75328C2.25466 8.87931 2.5762 10.3157 3.64435 11.0571L4.30572 11.5161C4.29583 11.6762 4.29082 11.8376 4.29082 12C4.29082 12.1624 4.29583 12.3238 4.30572 12.4839L3.64435 12.943C2.5762 13.6843 2.25466 15.1207 2.90477 16.2467L3.77457 17.7533C4.42468 18.8793 5.82939 19.319 7.00552 18.7647L7.71418 18.4307C7.98877 18.6157 8.27596 18.7837 8.57423 18.9331L8.63877 19.7076C8.74675 21.0033 9.82991 22 11.1301 22H12.8697C14.17 22 15.2531 21.0033 15.3611 19.7076L15.4221 18.9752C15.7387 18.8215 16.0432 18.6469 16.3337 18.4533L16.9943 18.7647C18.1705 19.319 19.5752 18.8793 20.2253 17.7533L21.0951 16.2467C21.7452 15.1207 21.4236 13.6843 20.3555 12.943L19.7724 12.5382C19.7846 12.3603 19.7908 12.1808 19.7908 12C19.7908 11.8192 19.7846 11.6397 19.7724 11.4618L20.3555 11.0571C21.4236 10.3157 21.7452 8.87931 21.0951 7.75328L20.2253 6.24675C19.5752 5.12072 18.1705 4.681 16.9943 5.23535L16.3337 5.54673C16.0432 5.35312 15.7387 5.17855 15.4221 5.02482L15.3611 4.29239C15.2531 2.99666 14.17 2 12.8697 2H11.1301ZM10.6319 4.45848C10.6535 4.19933 10.8701 4 11.1301 4H12.8697C13.1298 4 13.3464 4.19933 13.368 4.45848L13.5306 6.40913L14.1144 6.63495C14.6551 6.84409 15.1568 7.13296 15.605 7.48754L16.0911 7.87211L17.847 7.04447C18.0823 6.9336 18.3632 7.02154 18.4932 7.24675L19.363 8.75328C19.493 8.97849 19.4287 9.26577 19.2151 9.41404L17.6319 10.5129L17.7254 11.129C17.7684 11.4125 17.7908 11.7033 17.7908 12C17.7908 12.2967 17.7684 12.5875 17.7254 12.871L17.6319 13.4871L19.2151 14.586C19.4287 14.7343 19.493 15.0215 19.363 15.2467L18.4932 16.7533C18.3632 16.9785 18.0823 17.0664 17.847 16.9556L16.0911 16.1279L15.605 16.5125C15.1568 16.8671 14.6551 17.1559 14.1144 17.3651L13.5306 17.5909L13.368 19.5415C13.3464 19.8007 13.1298 20 12.8697 20H11.1301C10.8701 20 10.6535 19.8007 10.6319 19.5415L10.4673 17.5669L9.89533 17.3367C9.37165 17.1259 8.88562 16.84 8.45073 16.4918L7.96373 16.102L6.15281 16.9556C5.91758 17.0664 5.63664 16.9785 5.50662 16.7533L4.63682 15.2467C4.5068 15.0215 4.5711 14.7343 4.78473 14.586L6.43771 13.4387L6.34974 12.8271C6.31096 12.5575 6.29082 12.2814 6.29082 12C6.29082 11.7186 6.31096 11.4425 6.34974 11.1729L6.4377 10.5613L4.78473 9.41404C4.5711 9.26577 4.5068 8.97849 4.63682 8.75328L5.50662 7.24675C5.63664 7.02154 5.91758 6.9336 6.15281 7.04447L7.96371 7.89802L8.45071 7.50818C8.88561 7.16005 9.37164 6.87411 9.89533 6.66334L10.4673 6.43313L10.6319 4.45848Z" fill="currentColor"/>
</svg>
