<svg width="24" height="24" viewBox="0 0 24 24" fill="none" xmlns="http://www.w3.org/2000/svg">
<path fill-rule="evenodd" clip-rule="evenodd" d="M17.2929 13.2929C17.6834 12.9024 18.3166 12.9024 18.7071 13.2929L21.7071 16.2929C21.8946 16.4804 22 16.7348 22 17C22 17.2652 21.8946 17.5196 21.7071 17.7071L18.7071 20.7071C18.3166 21.0976 17.6834 21.0976 17.2929 20.7071C16.9024 20.3166 16.9024 19.6834 17.2929 19.2929L19.5858 17L17.2929 14.7071C16.9024 14.3166 16.9024 13.6834 17.2929 13.2929Z" fill="currentColor"/>
<path fill-rule="evenodd" clip-rule="evenodd" d="M17.2929 3.29289C17.6834 2.90237 18.3166 2.90237 18.7071 3.29289L21.7071 6.29289C21.8946 6.48043 22 6.73478 22 7C22 7.26522 21.8946 7.51957 21.7071 7.70711L18.7071 10.7071C18.3166 11.0976 17.6834 11.0976 17.2929 10.7071C16.9024 10.3166 16.9024 9.68342 17.2929 9.29289L19.5858 7L17.2929 4.70711C16.9024 4.31658 16.9024 3.68342 17.2929 3.29289Z" fill="currentColor"/>
<path fill-rule="evenodd" clip-rule="evenodd" d="M13.3994 7.20007C14.4023 6.44677 15.6504 6 17 6H21C21.5523 6 22 6.44772 22 7C22 7.55228 21.5523 8 21 8H17C16.0984 8 15.269 8.29712 14.6006 8.7992C14.159 9.13089 13.5321 9.0418 13.2004 8.60021C12.8687 8.15862 12.9578 7.53176 13.3994 7.20007ZM10.7996 15.3998C11.1313 15.8414 11.0422 16.4682 10.6006 16.7999C9.59769 17.5532 8.34958 18 7 18H3C2.44772 18 2 17.5523 2 17C2 16.4477 2.44772 16 3 16H7C7.90163 16 8.73099 15.7029 9.39942 15.2008C9.84101 14.8691 10.4679 14.9582 10.7996 15.3998Z" fill="currentColor"/>
<path fill-rule="evenodd" clip-rule="evenodd" d="M2 7C2 6.44772 2.44772 6 3 6H7C10.3137 6 13 8.68629 13 12C13 14.2091 14.7909 16 17 16H21C21.5523 16 22 16.4477 22 17C22 17.5523 21.5523 18 21 18H17C13.6863 18 11 15.3137 11 12C11 9.79086 9.20914 8 7 8H3C2.44772 8 2 7.55228 2 7Z" fill="currentColor"/>
</svg>
