<svg width="24" height="24" viewBox="0 0 24 24" fill="none" xmlns="http://www.w3.org/2000/svg">
<path d="M16.0932 14.75H16.0933C16.4121 14.75 16.585 14.7506 16.7423 14.7654C17.8598 14.8705 18.8394 15.5003 19.3688 16.4307L20.0207 16.0598L19.3688 16.4307C19.4431 16.5613 19.5105 16.7112 19.6364 16.9948L19.6364 16.9948L19.6528 17.0318L19.6528 17.0318L19.6911 17.1178C19.6911 17.1178 19.6911 17.1178 19.6911 17.1178C19.956 17.7139 20.092 18.0265 20.1537 18.2692C20.6086 20.0612 19.3935 21.8925 17.4394 22.2057C17.1765 22.2479 16.818 22.2501 16.1485 22.25C16.1485 22.25 16.1485 22.25 16.1485 22.25L16.0516 22.25H7.94842L7.85149 22.25C7.85148 22.25 7.85146 22.25 7.85145 22.25C7.18199 22.2501 6.82353 22.2479 6.56058 22.2057C4.60655 21.8925 3.39135 20.0612 3.84635 18.2692C3.90798 18.0265 4.04402 17.7139 4.30895 17.1178L4.34715 17.0318L4.34715 17.0318L4.36358 16.9948L4.36359 16.9948C4.48949 16.7112 4.55691 16.5613 4.63121 16.4307C5.1606 15.5003 6.14016 14.8705 7.25765 14.7654C7.41502 14.7506 7.5879 14.75 7.90668 14.75C7.90669 14.75 7.90669 14.75 7.9067 14.75L7.94842 14.75L16.0932 14.75ZM7.75 7C7.75 4.65279 9.65279 2.75 12 2.75C14.3472 2.75 16.25 4.65279 16.25 7C16.25 9.34721 14.3472 11.25 12 11.25C9.65279 11.25 7.75 9.34721 7.75 7Z" stroke="currentColor" stroke-width="1.5" stroke-linecap="round" stroke-linejoin="round"/>
</svg>
