<svg width="28" height="28" viewBox="0 0 28 28" fill="none" xmlns="http://www.w3.org/2000/svg">
<path fill-rule="evenodd" clip-rule="evenodd" d="M13.9999 2.8999C10.9071 2.8999 8.3999 5.40711 8.3999 8.4999C8.3999 11.5927 10.9071 14.0999 13.9999 14.0999C17.0927 14.0999 19.5999 11.5927 19.5999 8.4999C19.5999 5.40711 17.0927 2.8999 13.9999 2.8999ZM10.2499 8.4999C10.2499 6.42883 11.9288 4.7499 13.9999 4.7499C16.071 4.7499 17.7499 6.42884 17.7499 8.4999C17.7499 10.571 16.071 12.2499 13.9999 12.2499C11.9288 12.2499 10.2499 10.571 10.2499 8.4999Z" fill="currentColor"/>
<path fill-rule="evenodd" clip-rule="evenodd" d="M9.21969 16C8.49336 16 7.777 16.172 7.12735 16.5024C6.15675 16.9961 5.38503 17.8176 4.94431 18.8263L4.42028 20.0256C3.71894 21.6308 3.90456 23.4936 4.90827 24.923C5.82355 26.2264 7.30133 27 8.87605 27H19.124C20.6987 27 22.1764 26.2264 23.0917 24.923C24.0954 23.4936 24.2811 21.6308 23.5797 20.0256L23.0557 18.8263C22.615 17.8176 21.8432 16.9961 20.8727 16.5024C20.223 16.172 19.5066 16 18.7803 16H9.21969ZM8.00664 18.2913C8.38328 18.0997 8.79859 18 9.21969 18H18.7803C19.2014 18 19.6167 18.0997 19.9934 18.2913C20.5561 18.5775 21.0035 19.0538 21.259 19.6386L21.783 20.8379C22.2016 21.7958 22.0908 22.9075 21.4918 23.7605C20.9456 24.5383 20.0637 25 19.124 25H8.87605C7.93631 25 7.05441 24.5383 6.5082 23.7605C5.90921 22.9075 5.79844 21.7958 6.21698 20.8379L6.74101 19.6386C6.99652 19.0538 7.44393 18.5775 8.00664 18.2913Z" fill="currentColor"/>
</svg>
