<svg width="24" height="24" viewBox="0 0 24 24" fill="none" xmlns="http://www.w3.org/2000/svg">
<path fill-rule="evenodd" clip-rule="evenodd" d="M7 7C7 4.23858 9.23858 2 12 2C14.7614 2 17 4.23858 17 7C17 9.76142 14.7614 12 12 12C9.23858 12 7 9.76142 7 7Z" fill="currentColor"/>
<path fill-rule="evenodd" clip-rule="evenodd" d="M7.90679 14C7.92047 14 7.93435 14 7.94842 14L16.0932 14C16.4011 14 16.6128 13.9999 16.8126 14.0187C18.1657 14.146 19.3664 14.9099 20.0207 16.0598C20.1173 16.2296 20.2006 16.4174 20.3219 16.6904L20.3383 16.7274C20.3512 16.7565 20.3639 16.7851 20.3764 16.8132C20.6298 17.3834 20.7995 17.7651 20.8806 18.0846C21.4505 20.3293 19.9209 22.5675 17.5581 22.9463C17.2218 23.0002 16.7914 23.0001 16.1484 23C16.1166 23 16.0844 23 16.0516 23H7.94842C7.91563 23 7.88337 23 7.85163 23C7.20861 23.0001 6.7782 23.0002 6.44187 22.9463C4.07906 22.5675 2.54948 20.3293 3.11941 18.0846C3.20054 17.7651 3.37016 17.3834 3.62359 16.8132C3.63609 16.785 3.64881 16.7564 3.66172 16.7274C3.66727 16.7149 3.67273 16.7026 3.67812 16.6904C3.79937 16.4174 3.88272 16.2296 3.97933 16.0598C4.63359 14.9099 5.83427 14.146 7.18743 14.0187C7.38724 13.9999 7.5989 14 7.90679 14Z" fill="currentColor"/>
</svg>
