<svg width="24" height="24" viewBox="0 0 24 24" fill="none" xmlns="http://www.w3.org/2000/svg">
<path fill-rule="evenodd" clip-rule="evenodd" d="M12 3.5C10.067 3.5 8.5 5.067 8.5 7C8.5 8.933 10.067 10.5 12 10.5C13.933 10.5 15.5 8.93299 15.5 7C15.5 5.06701 13.933 3.5 12 3.5ZM12 2C9.23858 2 7 4.23858 7 7C7 9.76142 9.23858 12 12 12C14.7614 12 17 9.76142 17 7C17 4.23858 14.7614 2 12 2Z" fill="currentColor"/>
<path fill-rule="evenodd" clip-rule="evenodd" d="M8.33315 13.27L8.3615 13.27L15.6666 13.27C15.9169 13.27 16.1357 13.27 16.3479 13.29C17.7862 13.4254 19.0749 14.2386 19.7813 15.4801C19.7907 15.4967 19.7994 15.5135 19.8075 15.5307L20.1238 16.2004L20.1311 16.2162L20.155 16.2701C20.3586 16.7279 20.5324 17.119 20.6207 17.466C21.2422 19.914 19.5682 22.3106 17.0592 22.7129C16.7004 22.7703 16.2653 22.7702 15.7464 22.77L15.6872 22.77H8.31247L8.25341 22.77C7.73453 22.7702 7.29938 22.7703 6.94063 22.7129C4.4316 22.3106 2.75758 19.9143 3.37912 17.4663C3.46714 17.1195 3.6408 16.7289 3.84384 16.2723L3.86884 16.2161L3.87604 16.2004L4.19226 15.5308C4.20038 15.5136 4.20915 15.4967 4.21855 15.4801C4.92491 14.2386 6.21356 13.4254 7.65186 13.29C7.86409 13.27 8.08287 13.27 8.33315 13.27ZM7.178 21.2318C5.48654 20.9606 4.44134 19.378 4.833 17.8354C4.88536 17.6291 5.00164 17.3607 5.23609 16.8331L5.5357 16.1987C5.99541 15.4087 6.83491 14.8735 7.7927 14.7834C7.92758 14.7706 8.07649 14.77 8.3615 14.77L8.90711 14.771L16.2071 14.7834L16.2423 14.8055L16.2436 14.787C17.1861 14.8871 18.0102 15.4187 18.4641 16.1987L18.7638 16.8332C18.998 17.3603 19.1143 17.629 19.1668 17.8354C19.5585 19.378 18.5132 20.9606 16.8218 21.2318C16.6096 21.2657 16.3223 21.2697 15.7917 21.27L15.6874 21.27H14.4157H8.31247C7.71444 21.2701 7.40361 21.2679 7.178 21.2318Z" fill="currentColor"/>
</svg>
