<svg width="28" height="28" viewBox="0 0 28 28" fill="none" xmlns="http://www.w3.org/2000/svg">
<path d="M8.5 8.5C8.5 5.46243 10.9624 3 14 3C17.0376 3 19.5 5.46243 19.5 8.5C19.5 11.5376 17.0376 14 14 14C10.9624 14 8.5 11.5376 8.5 8.5Z" fill="currentColor"/>
<path d="M9.21969 16C8.49336 16 7.777 16.172 7.12735 16.5024C6.15675 16.9961 5.38503 17.8176 4.94431 18.8263L4.42028 20.0256C3.71894 21.6308 3.90456 23.4936 4.90827 24.923C5.82355 26.2264 7.30133 27 8.87605 27H19.124C20.6987 27 22.1764 26.2264 23.0917 24.923C24.0954 23.4936 24.2811 21.6308 23.5797 20.0256L23.0557 18.8263C22.615 17.8176 21.8432 16.9961 20.8727 16.5024C20.223 16.172 19.5066 16 18.7803 16H9.21969Z" fill="currentColor"/>
</svg>
