<svg width="24" height="24" viewBox="0 0 24 24" fill="none" xmlns="http://www.w3.org/2000/svg">
<path d="M22 11.9998C22 17.5238 17.523 21.9998 12 21.9998C6.477 21.9998 2 17.5238 2 11.9998C2 6.47776 6.477 1.99976 12 1.99976C17.523 1.99976 22 6.47776 22 11.9998Z" fill="currentColor"/>
<path fill-rule="evenodd" clip-rule="evenodd" d="M12.8701 12.6307C12.8701 13.1127 12.4771 13.5057 11.9951 13.5057C11.5131 13.5057 11.1201 13.1127 11.1201 12.6307V8.21069C11.1201 7.72869 11.5131 7.33569 11.9951 7.33569C12.4771 7.33569 12.8701 7.72869 12.8701 8.21069V12.6307ZM11.125 15.8035C11.125 15.3215 11.516 14.9285 11.995 14.9285C12.488 14.9285 12.88 15.3215 12.88 15.8035C12.88 16.2855 12.488 16.6785 12.005 16.6785C11.52 16.6785 11.125 16.2855 11.125 15.8035Z" fill="white"/>
</svg>
