<svg width="73" height="31" viewBox="0 0 73 31" fill="none" xmlns="http://www.w3.org/2000/svg">
<g clip-path="url(#clip0_3605_10931)">
<path d="M38 59.3911C51.2548 59.3911 62 48.0372 62 34.0315C62 20.0257 51.2548 8.67188 38 8.67188C24.7452 8.67188 14 20.0257 14 34.0315C14 48.0372 24.7452 59.3911 38 59.3911Z" fill="#FD9A40"/>
<path d="M30.1512 27.3935C30.0331 28.7757 29.0626 29.81 27.974 29.7119C26.8938 29.6138 26.109 28.4101 26.2187 27.0279C26.3369 25.6458 27.3073 24.6115 28.3959 24.7096C29.4761 24.8076 30.2609 26.0114 30.1512 27.3935Z" fill="#121212"/>
<path d="M40.0494 27.3935C39.9313 28.7757 38.9608 29.81 37.8722 29.7119C36.792 29.6138 36.0072 28.4101 36.1169 27.0279C36.2351 25.6458 37.2055 24.6115 38.2942 24.7096C39.3743 24.8076 40.1591 26.0114 40.0494 27.3935Z" fill="#121212"/>
<path d="M32.5304 30.9913C33.3413 30.9913 33.9987 30.6399 33.9987 30.2066C33.9987 29.7732 33.3413 29.4219 32.5304 29.4219C31.7194 29.4219 31.062 29.7732 31.062 30.2066C31.062 30.6399 31.7194 30.9913 32.5304 30.9913Z" fill="#121212"/>
<path d="M66.5 1.27344C66.1028 7.31144 65.7778 11.4248 60 11.8399C65.7778 12.2551 66.1028 16.3684 66.5 22.4064C66.8972 16.3684 67.2222 12.2551 73 11.8399C67.2222 11.4248 66.8972 7.31144 66.5 1.27344Z" fill="#FFE76B"/>
<path d="M4 21.3516C3.75556 25.5782 3.55556 28.4575 0 28.7481C3.55556 29.0387 3.75556 31.9181 4 36.1447C4.24444 31.9181 4.44444 29.0387 8 28.7481C4.44444 28.4575 4.24444 25.5782 4 21.3516Z" fill="#FFE76B"/>
<path d="M54.5 0.21875C54.2861 3.84155 54.1111 6.30958 51 6.55865C54.1111 6.80772 54.2861 9.27575 54.5 12.8986C54.7139 9.27575 54.8889 6.80772 58 6.55865C54.8889 6.30958 54.7139 3.84155 54.5 0.21875Z" fill="#FFE76B"/>
</g>
<defs>
<clipPath id="clip0_3605_10931">
<rect width="73" height="31" fill="white"/>
</clipPath>
</defs>
</svg>
