<svg width="40" height="40" viewBox="0 0 40 40" fill="none" xmlns="http://www.w3.org/2000/svg">
<circle cx="20" cy="20" r="19.5" fill="#F8F8F8" stroke="#DBDBDB"/>
<g clip-path="url(#clip0_3561_5254)">
<path d="M27 11H13C11.35 11 10 12.35 10 14V23C10 24.65 11.35 26 13 26H22.2325L23.75 28.2775C23.9475 28.575 24.385 28.575 24.5825 28.2775L26.0975 26H27C28.65 26 30 24.65 30 23V14C30 12.35 28.65 11 27 11Z" fill="#FD9A40"/>
<path d="M15 20C15.8284 20 16.5 19.3284 16.5 18.5C16.5 17.6716 15.8284 17 15 17C14.1716 17 13.5 17.6716 13.5 18.5C13.5 19.3284 14.1716 20 15 20Z" fill="white"/>
<path d="M20 20C20.8284 20 21.5 19.3284 21.5 18.5C21.5 17.6716 20.8284 17 20 17C19.1716 17 18.5 17.6716 18.5 18.5C18.5 19.3284 19.1716 20 20 20Z" fill="white"/>
<path d="M25 20C25.8284 20 26.5 19.3284 26.5 18.5C26.5 17.6716 25.8284 17 25 17C24.1716 17 23.5 17.6716 23.5 18.5C23.5 19.3284 24.1716 20 25 20Z" fill="white"/>
</g>
<defs>
<clipPath id="clip0_3561_5254">
<rect width="20" height="17.5" fill="white" transform="translate(10 11)"/>
</clipPath>
</defs>
</svg>
