<svg width="150" height="150" viewBox="0 0 150 150" fill="none" xmlns="http://www.w3.org/2000/svg">
<path d="M127.16 29.6424L131.636 32.0518C132.334 30.754 133.541 30.3116 134.903 31.0449C136.126 31.7034 136.479 32.9124 135.796 34.1821C134.715 36.2567 132.65 35.7636 130.036 34.3569L128.368 33.459L125.682 38.7817L129.853 41.0265L131.131 38.9852C134.788 40.9175 138.437 40.3342 140.396 36.6945C142.507 32.7727 140.949 29.2049 137.085 27.1247C132.692 24.7602 128.899 26.2118 127.16 29.6424ZM128.08 46.1856C128.885 44.6903 128.367 42.9199 126.699 42.022C125.003 41.1091 123.241 41.6523 122.436 43.1477C121.661 44.5866 122.178 46.357 123.874 47.2699C125.542 48.1678 127.305 47.6246 128.08 46.1856Z" fill="#CCCCCC"/>
<path d="M111.808 20.3164L115.701 21.4917C116.038 20.3746 116.911 19.8432 118.096 20.2009C119.16 20.5221 119.632 21.4065 119.302 22.4993C118.791 24.2793 117.094 24.2177 114.821 23.5314L113.371 23.0934L112.128 27.6469L115.755 28.7419L116.426 26.9571C119.601 27.8891 122.363 26.8681 123.309 23.7354C124.328 20.3598 122.532 17.8304 119.171 16.8156C115.35 15.6622 112.615 17.3803 111.808 20.3164ZM115.2 33.0261C115.589 31.739 114.898 30.4441 113.447 30.006C111.972 29.5607 110.68 30.2571 110.292 31.5442C109.918 32.7827 110.609 34.0777 112.084 34.523C113.534 34.961 114.826 34.2646 115.2 33.0261Z" fill="#CCCCCC"/>
<g opacity="0.6" filter="url(#filter0_f_2339_7538)">
<path d="M73.8593 138.465C89.4322 138.465 102.056 137.331 102.056 135.932C102.056 134.533 89.4322 133.398 73.8593 133.398C58.2864 133.398 45.6621 134.533 45.6621 135.932C45.6621 137.331 58.2864 138.465 73.8593 138.465Z" fill="#E4740D"/>
</g>
<path d="M87.2619 115.921C111.625 108.927 125.661 83.6597 118.613 59.4849C111.565 35.3101 86.1012 21.3821 61.7381 28.3758C37.3751 35.3695 23.3387 60.6366 30.3869 84.8114C37.435 108.986 62.8988 122.914 87.2619 115.921Z" fill="#FD9A40"/>
<path d="M66.8603 60.2371C66.6389 62.7198 64.779 64.5874 62.705 64.4043C60.6311 64.2212 59.1328 62.0607 59.3542 59.578C59.5756 57.0953 61.4356 55.2277 63.5095 55.4108C65.5835 55.5939 67.0891 57.7544 66.8603 60.2371Z" fill="#121212"/>
<path d="M85.8062 60.2371C85.5847 62.7198 83.7248 64.5874 81.6508 64.4043C79.5769 64.2212 78.0786 62.0607 78.3 59.578C78.5214 57.0953 80.3814 55.2277 82.4553 55.4108C84.5293 55.5939 86.0276 57.7544 85.8062 60.2371Z" fill="#121212"/>
<path d="M74.2334 65.3197C74.2334 66.1033 72.9713 66.7332 71.4214 66.7332C69.8715 66.7332 68.6094 66.096 68.6094 65.3197C68.6094 64.5361 69.8715 63.9062 71.4214 63.9062C72.9713 63.9062 74.2334 64.5434 74.2334 65.3197Z" fill="#121212"/>
<path d="M60.8599 76.1484C60.8599 76.1484 70.2924 84.0946 85.2308 76.1484" stroke="#121212" stroke-width="3" stroke-miterlimit="10" stroke-linecap="round"/>
<path d="M85.7101 72.4922C85.7101 72.4922 84.8245 75.8757 88.0129 77.8165" stroke="#121212" stroke-width="3" stroke-miterlimit="10" stroke-linecap="round"/>
<path d="M60.7412 72.4922C60.7412 72.4922 61.6269 75.8757 58.4385 77.8165" stroke="#121212" stroke-width="3" stroke-miterlimit="10" stroke-linecap="round"/>
<path d="M58.1141 111.697C58.0625 115.754 58.0846 119.819 58.1732 123.876C55.6564 123.363 52.8738 123.539 50.763 124.997C48.6521 126.454 47.5007 129.398 48.6373 131.69C49.774 133.983 52.6081 134.847 55.1619 135.169C59.0072 135.645 62.9411 135.426 66.6978 134.51C67.5023 134.312 68.3142 134.078 69.0006 133.617C71.0008 132.276 71.3403 129.537 71.4436 127.15C71.6872 121.738 71.7019 116.318 71.5026 110.906C71.4657 109.925 71.3698 108.819 70.6096 108.182C70.056 107.713 69.2811 107.618 68.5578 107.566C65.0741 107.31 61.5535 107.522 58.1289 108.189C58.0182 108.936 57.9001 109.683 57.7894 110.43L58.1141 111.697Z" fill="#FD9A40"/>
<path d="M89.1126 111.697C89.1643 115.754 89.1422 119.819 89.0536 123.876C91.5704 123.363 94.3529 123.539 96.4638 124.997C98.5747 126.454 99.726 129.398 98.5894 131.69C97.4528 133.983 94.6186 134.847 92.0649 135.169C88.2196 135.645 84.2857 135.426 80.5289 134.51C79.7244 134.312 78.9126 134.078 78.2262 133.617C76.226 132.276 75.8865 129.537 75.7832 127.15C75.5396 121.738 75.5248 116.318 75.7241 110.906C75.761 109.925 75.857 108.819 76.6172 108.182C77.1707 107.713 77.9457 107.618 78.669 107.566C82.1527 107.31 85.6733 107.522 89.0979 108.189C89.2086 108.936 89.3267 109.683 89.4374 110.43L89.1126 111.697Z" fill="#FD9A40"/>
<path d="M112.162 58.0315C111.432 56.5521 110.303 55.1899 108.73 54.5674C107.099 53.9156 105.35 54.399 104.059 55.5122C102.693 56.6986 102.14 58.4709 101.962 60.2066C101.807 61.6787 101.852 63.2826 102.383 64.6814C102.671 65.4357 103.07 66.1681 103.704 66.6881C104.073 66.9956 104.457 67.1861 104.87 67.3106C104.642 68.9437 104.479 70.5842 104.206 72.2028C103.867 74.1875 103.276 76.1575 102.76 78.0983C101.726 81.9725 100.715 85.854 100.376 89.8601C100.287 91.1564 100.604 92.5918 101.977 93.0971C103.239 93.5585 104.324 92.7895 104.76 91.6251C105.284 90.2116 105.535 88.6297 105.852 87.165C106.214 85.5245 106.531 83.8693 106.811 82.2142C107.35 79.043 107.764 75.8426 108.029 72.6348C108.162 71.0236 108.28 69.4051 108.325 67.7866C108.332 67.5889 108.325 67.4058 108.302 67.23C109.727 67.0616 111.085 66.2999 111.993 65.1354C113.653 63.0189 113.233 60.3092 112.162 58.0315Z" fill="white"/>
<path d="M112.864 75.223C109.926 73.5093 106.716 72.2496 103.387 71.5026C102.103 71.217 100.693 71.0119 99.5049 71.5758C98.1394 72.2276 97.3792 73.7949 97.3718 75.2962C97.3571 76.7976 97.9697 78.2477 98.7446 79.5366C100.87 83.0886 104.184 85.7691 107.616 88.1053" fill="#FD9A40"/>
<path d="M113.425 74.2841C111.048 72.9146 108.502 71.8087 105.867 71.0251C103.571 70.344 100.597 69.4359 98.4419 70.9445C96.4196 72.358 95.9177 74.9945 96.5303 77.2649C97.1725 79.6597 98.7814 81.8128 100.442 83.6071C102.383 85.709 104.693 87.452 107.055 89.0706C108.229 89.8762 109.336 87.972 108.17 87.1737C105.963 85.6651 103.822 84.0246 102.007 82.0545C100.346 80.2602 98.2796 77.6603 98.4862 75.0678C98.5674 74.0498 99.084 72.9659 100.066 72.5338C101.335 71.9772 103.011 72.5265 104.265 72.856C107.092 73.603 109.779 74.7236 112.31 76.181C113.535 76.8987 114.657 74.9945 113.425 74.2841Z" fill="#FD8110"/>
<path d="M48.3422 57.5797C48.2832 56.2614 48.0175 54.9798 47.0432 54.0204C46.4749 53.4638 45.4268 53.6981 45.2276 54.4964C45.0209 55.324 44.8216 56.1589 44.615 56.9864C44.5116 57.4039 44.4304 57.8433 44.2976 58.2608C44.2902 58.2827 44.2755 58.312 44.2681 58.3413C44.1721 58.0923 44.0245 57.7847 44.0024 57.7042C43.899 57.338 43.8105 56.9645 43.7293 56.591C43.5595 55.8147 43.5448 54.9798 43.3086 54.2254C42.9248 53.0024 41.4339 52.0869 40.408 53.266C39.5814 54.2108 39.943 55.8806 39.943 57.0231C39.943 58.2754 39.8692 59.5717 38.9614 60.5091C38.9392 60.37 38.8876 60.2235 38.858 60.0843C38.7621 59.6815 38.7031 59.2787 38.6735 58.8686C38.6219 58.1656 38.7842 57.3966 38.5776 56.7155C38.1052 55.1775 36.2379 55.5657 35.7139 56.8253C35.1382 58.2241 35.5294 60.1063 35.7951 61.5418C36.0903 63.1603 36.4151 64.8667 37.4483 66.1996C38.1495 67.1004 39.1016 67.6936 40.1644 67.8767C40.1644 67.8987 40.157 67.9207 40.157 67.9499C40.1349 69.0558 40.1054 70.1617 40.0832 71.2602C39.7733 74.5485 39.6994 77.8515 39.884 81.1472C39.8766 81.7404 39.8618 82.3336 39.8471 82.9268C39.8102 85.263 39.8618 87.6139 40.3268 89.9136C40.6885 91.7152 41.3453 93.7292 43.3086 94.3224C43.8252 94.4762 44.5485 94.1393 44.6445 93.5681C45.0283 91.2611 44.8585 88.9908 44.5707 86.6765C44.2755 84.3329 44.0393 82.004 43.9876 79.6458C43.9433 77.3389 43.995 75.0246 43.9655 72.7176C43.9581 72.3368 43.9507 71.9487 43.9286 71.5678C43.9581 71.4653 43.9802 71.3481 43.9802 71.2236C43.9802 70.0665 43.9802 68.9093 43.9802 67.7522C46.283 66.932 47.6853 64.5737 48.1134 62.2302C48.3865 60.7069 48.4086 59.1249 48.3422 57.5797ZM38.9245 60.5604C38.6735 60.8094 38.9097 60.4139 38.9614 60.5164C38.9466 60.5311 38.9392 60.5457 38.9245 60.5604Z" fill="white"/>
<path d="M34.5176 75.2308C37.4551 73.5171 40.6657 72.2574 43.9943 71.5104C45.2786 71.2248 46.6883 71.0197 47.8766 71.5836C49.242 72.2354 50.0022 73.8027 50.0096 75.3041C50.0244 76.8054 49.4118 78.2555 48.6368 79.5444C46.5112 83.0964 43.1972 85.7769 39.7652 88.1131" fill="#FD9A40"/>
<path d="M35.0786 76.1768C37.6028 74.7194 40.2967 73.5989 43.1235 72.8519C44.3856 72.5223 46.0463 71.9804 47.3231 72.5296C48.3048 72.9544 48.8214 74.053 48.9026 75.0636C49.1092 77.6489 47.0353 80.2561 45.382 82.0504C43.559 84.0204 41.426 85.6536 39.2192 87.1696C38.053 87.9679 39.1601 89.872 40.3336 89.0664C44.4004 86.2835 48.6664 82.8926 50.5411 78.1981C51.4268 75.9864 51.3603 73.2913 49.6111 71.497C47.7143 69.5562 44.8801 70.1202 42.5331 70.7354C39.5291 71.5263 36.6433 72.7347 33.9641 74.28C32.7242 74.9904 33.8387 76.8945 35.0786 76.1768Z" fill="#FD8110"/>
<defs>
<filter id="filter0_f_2339_7538" x="35.6621" y="123.398" width="76.3945" height="25.0703" filterUnits="userSpaceOnUse" color-interpolation-filters="sRGB">
<feFlood flood-opacity="0" result="BackgroundImageFix"/>
<feBlend mode="normal" in="SourceGraphic" in2="BackgroundImageFix" result="shape"/>
<feGaussianBlur stdDeviation="5" result="effect1_foregroundBlur_2339_7538"/>
</filter>
</defs>
</svg>
