<svg width="150" height="150" viewBox="0 0 150 150" fill="none" xmlns="http://www.w3.org/2000/svg">
<g clip-path="url(#clip0_3767_11870)">
<g opacity="0.2" filter="url(#filter0_f_3767_11870)">
<path d="M74.2802 131.997C93.378 131.997 108.86 129.537 108.86 126.503C108.86 123.468 93.378 121.008 74.2802 121.008C55.1824 121.008 39.7006 123.468 39.7006 126.503C39.7006 129.537 55.1824 131.997 74.2802 131.997Z" fill="#E4740D"/>
</g>
<path d="M108.856 93.859C127.582 75.1333 127.582 44.7729 108.856 26.0472C90.1307 7.32148 59.7703 7.32148 41.0446 26.0472C22.3189 44.7729 22.3189 75.1333 41.0446 93.859C59.7703 112.585 90.1307 112.585 108.856 93.859Z" fill="#FD9A40"/>
<path d="M68.6235 47.5761C68.2921 51.2907 65.5331 54.0805 62.4505 53.803C59.3755 53.5256 57.1483 50.2965 57.4797 46.5819C57.8111 42.8673 60.5701 40.0775 63.6527 40.355C66.7277 40.6247 68.9549 43.8615 68.6235 47.5761Z" fill="#121212"/>
<path d="M86.7573 47.4276C86.5261 50.0402 84.584 52.0054 82.4184 51.8127C80.2529 51.6201 78.6884 49.3466 78.9196 46.7341C79.1508 44.1215 81.0929 42.1563 83.2585 42.349C85.424 42.5339 86.9885 44.8074 86.7573 47.4276Z" fill="#121212"/>
<path d="M74.6732 52.7608C74.6732 53.5854 73.3554 54.2482 71.737 54.2482C70.1186 54.2482 68.8008 53.5777 68.8008 52.7608C68.8008 51.9362 70.1186 51.2734 71.737 51.2734C73.3554 51.2734 74.6732 51.9362 74.6732 52.7608Z" fill="#121212"/>
<path d="M89.6704 64.9045C87.1503 63.3554 87.7514 60.7043 87.7823 60.5733C87.9364 59.9568 87.5665 59.3326 86.9499 59.1707C86.3334 59.0089 85.7015 59.3788 85.5396 59.9953C85.347 60.7275 85.2776 61.8989 85.6167 63.1396H85.609C71.6214 70.6382 62.6895 64.2494 61.5643 63.3631C61.9727 62.0453 61.9111 60.7737 61.703 59.9876C61.5412 59.3711 60.9092 59.0012 60.2927 59.163C59.6762 59.3249 59.3062 59.9568 59.4681 60.5733C59.4758 60.6042 60.1463 63.3246 57.58 64.8967C57.0328 65.2281 56.8632 65.9448 57.2023 66.4843C57.4181 66.8388 57.8034 67.0392 58.1888 67.0392C58.3969 67.0392 58.6049 66.9852 58.7899 66.8696C59.4835 66.4458 60.0307 65.9449 60.4622 65.4208C61.8571 66.4304 66.1112 69.0583 72.5848 69.0583C76.4997 69.0583 81.2316 68.0873 86.6263 65.2127C87.081 65.8138 87.6744 66.3841 88.4604 66.8696C88.6454 66.9852 88.8612 67.0392 89.0616 67.0392C89.4469 67.0392 89.8322 66.8465 90.048 66.4843C90.3794 65.9526 90.2098 65.2435 89.6704 64.9045Z" fill="#121212"/>
<path d="M57.8419 101.551C57.788 105.821 57.8111 110.098 57.9036 114.367C55.2756 113.828 52.3702 114.013 50.1661 115.546C47.962 117.08 46.7598 120.178 47.9466 122.59C49.1334 125.003 52.0928 125.912 54.7593 126.251C58.7744 126.752 62.8821 126.521 66.8047 125.557C67.6448 125.349 68.4925 125.103 69.2092 124.617C71.2977 123.207 71.6522 120.325 71.7601 117.812C72.0144 112.117 72.0298 106.414 71.8218 100.719C71.7832 99.6862 71.683 98.5225 70.8893 97.8521C70.3113 97.3588 69.5021 97.2586 68.7468 97.2047C65.1093 96.935 61.4332 97.1585 57.8573 97.8598C57.7417 98.6458 57.6184 99.4319 57.5028 100.218L57.8419 101.551Z" fill="#FD9A40"/>
<path d="M90.2098 101.551C90.2637 105.821 90.2406 110.098 90.1481 114.367C92.7761 113.828 95.6815 114.013 97.8856 115.546C100.09 117.08 101.292 120.178 100.105 122.59C98.9183 125.003 95.9589 125.912 93.2924 126.251C89.2773 126.752 85.1697 126.521 81.247 125.557C80.407 125.349 79.5592 125.103 78.8425 124.617C76.754 123.207 76.3995 120.325 76.2916 117.812C76.0373 112.117 76.0219 106.414 76.23 100.719C76.2685 99.6862 76.3687 98.5225 77.1625 97.8521C77.7405 97.3588 78.5497 97.2586 79.3049 97.2047C82.9424 96.935 86.6185 97.1585 90.1944 97.8598C90.31 98.6458 90.4333 99.4319 90.5489 100.218L90.2098 101.551Z" fill="#FD9A40"/>
<path d="M115.01 63.2085C111.943 61.4052 108.59 60.0796 105.114 59.2935C103.773 58.9853 102.302 58.7772 101.061 59.3706C99.635 60.0565 98.8412 61.7057 98.8335 63.2856C98.8181 64.8654 99.4578 66.3913 100.267 67.7477C102.486 71.4854 105.947 74.3061 109.53 76.7645" fill="#FD9A40"/>
<path d="M115.595 62.2126C113.114 60.7714 110.455 59.6077 107.704 58.7831C105.307 58.0664 102.201 57.1108 99.951 58.6983C97.8394 60.1857 97.3153 62.9601 97.955 65.3492C98.6254 67.8692 100.305 70.135 102.039 72.0231C104.066 74.2349 106.479 76.0691 108.945 77.7723C110.17 78.62 111.334 76.6163 110.108 75.7762C107.804 74.1887 105.569 72.4624 103.673 70.3893C101.939 68.5012 99.7814 65.7653 99.9972 63.0372C100.082 61.966 100.621 60.8254 101.646 60.3707C102.972 59.785 104.721 60.363 106.032 60.7098C108.983 61.4959 111.788 62.675 114.432 64.2086C115.711 64.9561 116.882 62.9601 115.595 62.2126Z" fill="#FD8110"/>
<path d="M49.1642 55.7109C48.9099 56.1194 48.6479 56.5278 48.3936 56.9363C48.4167 56.9671 48.4552 56.9825 48.4783 57.0134C48.5014 57.0442 50.5283 59.9188 53.4799 59.4409C53.6187 59.4178 53.7497 59.4409 53.873 59.4795C54.0117 59.0633 54.1658 58.6549 54.2968 58.2387C52.7478 58.3004 51.4146 57.6299 50.4743 56.9209C49.8655 56.4585 49.4185 55.9961 49.1642 55.7109Z" fill="#E2E2E2"/>
<path d="M48.8714 59.8098C48.2395 59.332 47.7617 58.8388 47.4534 58.4766C45.18 62.2297 43.0067 66.0445 40.9799 69.9363C39.6928 72.3947 37.4656 75.5545 38.3596 78.4676C39.1996 81.2034 42.2129 82.028 44.4016 80.2555C45.5653 79.3153 46.205 77.9281 46.8446 76.618C47.6076 75.0612 48.3397 73.4968 49.041 71.9092C50.4128 68.8189 51.669 65.6823 52.8249 62.5071C52.9868 62.0601 53.1255 61.6055 53.2873 61.1585C51.4455 61.328 49.9427 60.6113 48.8714 59.8098ZM43.8544 77.4503C43.8775 77.4041 43.893 77.3578 43.9161 77.3193C43.9238 77.3193 43.9315 77.3193 43.9392 77.3116C43.9161 77.3655 43.8853 77.4041 43.8544 77.4503Z" fill="#E2E2E2"/>
<path d="M49.1643 55.7041C49.4109 55.9893 49.8579 56.4517 50.4744 56.9064C51.4146 57.6154 52.7479 58.2859 54.2969 58.2242C54.3663 58.0161 54.4434 57.808 54.5127 57.6C54.5667 57.4304 54.636 57.2455 54.7054 57.0605C53.0022 56.5442 51.3607 55.7427 49.8425 54.6406C49.6113 55.0028 49.3878 55.3496 49.1643 55.7041Z" fill="#A5A5A5"/>
<path d="M53.48 59.4343C50.5283 59.9199 48.4938 57.0376 48.4784 57.0068C48.4552 56.9759 48.4244 56.9528 48.3936 56.9297C48.0776 57.446 47.7693 57.9624 47.4534 58.4787C47.7616 58.8409 48.2317 59.3342 48.8714 59.812C49.9426 60.6135 51.4454 61.3302 53.2873 61.176C53.4877 60.6058 53.6803 60.0432 53.873 59.4729C53.7497 59.4343 53.6187 59.4112 53.48 59.4343Z" fill="#A5A5A5"/>
<path d="M69.2709 28.3725C62.0498 22.9547 51.8 24.419 46.39 31.6401C40.9799 38.8612 42.4364 49.1111 49.6576 54.5211C49.7192 54.5674 49.7809 54.5982 49.8425 54.6444C51.3607 55.7465 53.0022 56.548 54.7054 57.0643C61.1019 59.0141 68.3076 56.9102 72.5463 51.2535C77.9563 44.0401 76.4921 33.7903 69.2709 28.3725ZM69.8798 49.2652C66.4811 53.8044 60.6858 55.469 55.5686 53.8661C54.2122 53.4422 52.9021 52.7948 51.6998 51.9009C51.6844 51.8854 51.6613 51.8777 51.6459 51.8623C45.889 47.5466 44.7253 39.3853 49.041 33.6284C53.3568 27.8716 61.5181 26.7079 67.2749 31.0236C73.0318 35.347 74.1955 43.516 69.8798 49.2652Z" fill="#E2E2E2"/>
<path opacity="0.4" d="M61.3025 54.3408C68.4229 53.323 73.3701 46.7257 72.3523 39.6053C71.3344 32.4848 64.7371 27.5377 57.6167 28.5555C50.4962 29.5733 45.5491 36.1707 46.5669 43.2911C47.5847 50.4115 54.1821 55.3587 61.3025 54.3408Z" fill="white"/>
<path d="M57.3718 30.9576C55.8921 30.7187 54.4664 31.1272 53.2873 32.0443C52.2469 32.8458 51.4839 33.9324 50.8597 35.073C50.5668 35.6047 50.7133 36.36 51.2759 36.6529C51.8153 36.938 52.5474 36.807 52.8557 36.2367C53.11 35.782 53.3798 35.335 53.6803 34.9112C53.688 34.9034 53.8499 34.68 53.7497 34.8187C53.6572 34.942 53.7728 34.7878 53.7959 34.7647C53.8807 34.6645 53.9655 34.5644 54.0502 34.4719C54.2352 34.2715 54.4279 34.0788 54.6437 33.9016C54.6668 33.8862 54.8132 33.7629 54.6976 33.8553C54.5666 33.9632 54.7824 33.7937 54.7901 33.7937C54.898 33.7166 55.0059 33.6473 55.1215 33.5856C55.2371 33.524 55.3527 33.4623 55.4683 33.4007C55.5993 33.339 55.4991 33.3698 55.4297 33.4161C55.4837 33.3775 55.5685 33.3621 55.6301 33.339C55.7534 33.3005 55.8767 33.2619 56.0077 33.2311C56.0617 33.2157 56.1233 33.208 56.1773 33.1926C56.447 33.1309 56.0077 33.2003 56.1696 33.1926C56.3006 33.1849 56.4239 33.1772 56.5549 33.1772C56.6088 33.1772 56.6705 33.1849 56.7244 33.1849C57.0173 33.1926 56.4701 33.1386 56.763 33.1849C57.3564 33.2851 58.0346 33.0307 58.1887 32.3757C58.312 31.8208 58.0115 31.0578 57.3718 30.9576Z" fill="#E2E2E2"/>
<path d="M50.4821 40.5932C51.9695 40.5932 51.9695 38.2812 50.4821 38.2812C48.9947 38.2812 48.9947 40.5932 50.4821 40.5932Z" fill="#E2E2E2"/>
<path d="M34.3136 60.1678C37.5889 58.7729 41.08 57.8866 44.6251 57.5476C45.9969 57.4165 47.4765 57.3934 48.6325 58.141C49.9581 59.0041 50.5361 60.7381 50.3434 62.3103C50.1584 63.8824 49.3261 65.3081 48.3474 66.5566C45.6732 69.9784 41.8738 72.3366 38.0128 74.3172" fill="#FD9A40"/>
<path d="M34.6219 61.2777C37.5273 60.0523 40.5869 59.1892 43.7157 58.7961C45.0028 58.6343 46.6134 58.3646 47.8157 58.9965C48.8715 59.5514 49.2799 60.823 49.2183 61.9481C49.0719 64.6532 46.598 67.0499 44.6637 68.7069C42.4904 70.5719 39.9703 72.0053 37.4348 73.3154C36.1093 73.9936 37.2807 75.9896 38.5985 75.3114C43.0915 72.9917 48.0392 69.9862 50.513 65.3853C51.6536 63.2506 52.0235 60.5301 50.5515 58.4493C48.8792 56.0834 45.9815 56.199 43.4075 56.5304C40.163 56.9465 37.0187 57.7866 34.0054 59.0582C33.4274 59.3048 33.0266 59.8211 33.1962 60.4839C33.3426 61.0156 34.0516 61.5243 34.6219 61.2777Z" fill="#FD8110"/>
</g>
<defs>
<filter id="filter0_f_3767_11870" x="33.7006" y="115.008" width="81.1593" height="22.9922" filterUnits="userSpaceOnUse" color-interpolation-filters="sRGB">
<feFlood flood-opacity="0" result="BackgroundImageFix"/>
<feBlend mode="normal" in="SourceGraphic" in2="BackgroundImageFix" result="shape"/>
<feGaussianBlur stdDeviation="3" result="effect1_foregroundBlur_3767_11870"/>
</filter>
<clipPath id="clip0_3767_11870">
<rect width="96" height="126" fill="white" transform="translate(27 12)"/>
</clipPath>
</defs>
</svg>
